<?xml version="1.0" standalone="no"?>
<!DOCTYPE svg PUBLIC "-//W3C//DTD SVG 20010904//EN"
 "http://www.w3.org/TR/2001/REC-SVG-20010904/DTD/svg10.dtd">
<svg version="1.0" xmlns="http://www.w3.org/2000/svg"
 width="300.000000pt" height="299.000000pt" viewBox="0 0 300.000000 299.000000"
 preserveAspectRatio="xMidYMid meet">
<metadata>
Created by potrace 1.10, written by Peter Selinger 2001-2011
</metadata>
<g transform="translate(0.000000,299.000000) scale(0.100000,-0.100000)"
fill="#000000" stroke="none">
<path d="M51 2983 c0 -5 5 -17 10 -28 9 -19 9 -19 5 2 -2 12 1 24 8 27 6 2 3
5 -6 5 -10 1 -18 -2 -17 -6z"/>
<path d="M89 2848 c0 -79 -1 -164 -1 -190 1 -26 -3 -50 -8 -53 -6 -3 -9 49 -9
126 0 72 -3 134 -6 137 -3 3 -5 -28 -6 -69 0 -41 -3 -107 -5 -148 -4 -64 -3
-73 11 -67 9 3 13 2 10 -4 -3 -6 -2 -10 4 -10 7 0 10 -95 8 -276 -1 -219 -4
-280 -15 -290 -11 -12 -11 -14 2 -14 10 0 16 -9 16 -22 0 -110 12 -373 16
-377 3 -3 5 71 3 164 -1 94 -1 188 -1 210 l2 40 118 23 c64 13 134 26 155 28
21 3 48 9 60 14 51 20 -20 11 -212 -29 -61 -13 -108 -18 -113 -13 -5 5 -8 219
-8 485 0 317 -3 477 -10 477 -6 0 -10 -53 -11 -142z"/>
<path d="M539 2648 c-2 -585 0 -540 -29 -555 -17 -9 -20 -13 -8 -13 26 0 48
28 49 63 6 128 2 847 -3 847 -5 0 -9 -154 -9 -342z"/>
<path d="M670 2915 c0 -43 3 -76 6 -72 7 7 7 138 -1 145 -3 3 -5 -30 -5 -73z"/>
<path d="M739 2988 c0 -2 -1 -466 -2 -1031 l-2 -1029 -38 -30 c-21 -17 -40
-29 -42 -26 -2 2 -5 84 -7 182 -2 166 -9 207 -28 176 -4 -7 -6 -88 -3 -181 3
-92 3 -179 -1 -193 -6 -23 -31 -39 -66 -40 -9 -1 -15 -12 -17 -30 -1 -16 -7
-34 -13 -40 -5 -5 -10 -20 -10 -32 0 -12 -18 -76 -41 -141 -37 -110 -74 -235
-85 -293 -2 -14 -7 -36 -10 -50 -13 -51 -41 -225 -38 -229 7 -8 12 4 18 44 23
160 73 360 135 535 16 47 32 102 36 122 5 27 22 52 60 88 80 79 111 94 349
169 113 36 133 46 173 85 24 24 48 57 52 72 5 21 14 30 33 32 24 3 26 6 21 45
-7 54 -13 60 -13 13 0 -22 -4 -35 -10 -31 -5 3 -10 1 -10 -4 0 -6 -5 -10 -12
-9 -6 2 -18 -10 -27 -27 -9 -16 -20 -33 -26 -37 -5 -4 -7 -8 -3 -8 14 0 -66
-71 -83 -73 -10 -2 -22 -6 -25 -10 -4 -4 -16 -7 -26 -7 -17 0 -18 20 -18 423
-1 232 0 494 1 582 3 343 0 978 -6 983 -3 3 -7 3 -9 1 -2 -2 -7 -373 -11 -824
-4 -451 -10 -824 -13 -829 -3 -5 -1 -7 4 -3 9 5 8 -298 -1 -339 -3 -15 -20
-25 -67 -39 -96 -28 -98 -28 -98 14 -1 20 0 167 1 326 0 160 0 315 -1 345 -2
30 -2 346 -2 703 0 395 -3 647 -9 647 -5 0 -9 -1 -10 -2z"/>
<path d="M1144 2973 c4 -24 21 -27 23 -3 1 11 -4 20 -12 20 -7 0 -12 -8 -11
-17z"/>
<path d="M1929 2983 c-5 -42 -2 -166 3 -170 10 -6 10 -43 0 -43 -4 0 -8 -79
-9 -176 -2 -151 0 -175 13 -172 22 4 30 568 8 568 -8 0 -14 -3 -15 -7z"/>
<path d="M1800 2919 c0 -5 5 -7 10 -4 6 3 10 8 10 11 0 2 -4 4 -10 4 -5 0 -10
-5 -10 -11z"/>
<path d="M61 2894 c0 -11 3 -14 6 -6 3 7 2 16 -1 19 -3 4 -6 -2 -5 -13z"/>
<path d="M1147 2890 c-3 -12 0 -20 8 -20 8 0 11 8 8 20 -3 11 -7 20 -8 20 -1
0 -5 -9 -8 -20z"/>
<path d="M1810 2840 c0 -16 4 -30 8 -30 5 0 7 14 4 30 -2 17 -6 30 -8 30 -2 0
-4 -13 -4 -30z"/>
<path d="M1161 2844 c0 -11 3 -14 6 -6 3 7 2 16 -1 19 -3 4 -6 -2 -5 -13z"/>
<path d="M1141 2835 c1 -19 18 -51 18 -35 0 8 -4 22 -9 30 -5 8 -9 11 -9 5z"/>
<path d="M670 2800 c0 -11 2 -20 4 -20 2 0 6 9 9 20 3 11 1 20 -4 20 -5 0 -9
-9 -9 -20z"/>
<path d="M1640 2795 c0 -8 4 -15 10 -15 5 0 7 7 4 15 -4 8 -8 15 -10 15 -2 0
-4 -7 -4 -15z"/>
<path d="M1809 2778 c0 -13 -1 -45 -3 -73 -3 -49 9 -103 20 -92 3 3 1 15 -6
26 -6 12 -7 21 -3 21 4 0 8 32 8 70 0 39 -3 70 -7 70 -5 0 -8 -10 -9 -22z"/>
<path d="M1147 2750 c3 -11 7 -20 9 -20 2 0 4 9 4 20 0 11 -4 20 -9 20 -5 0
-7 -9 -4 -20z"/>
<path d="M673 2650 c0 -47 2 -66 4 -42 2 23 2 61 0 85 -2 23 -4 4 -4 -43z"/>
<path d="M1150 2700 c0 -11 2 -20 4 -20 2 0 6 9 9 20 3 11 1 20 -4 20 -5 0 -9
-9 -9 -20z"/>
<path d="M1150 2668 c-5 -26 -5 -109 0 -124 5 -12 8 1 8 34 1 29 4 62 7 72 4
12 2 20 -4 20 -6 0 -11 -1 -11 -2z"/>
<path d="M2915 2615 c-38 -7 -128 -22 -200 -34 -140 -23 -199 -34 -285 -51
-30 -5 -66 -12 -80 -15 -118 -21 -249 -49 -246 -52 8 -8 200 25 816 138 36 7
69 16 75 21 11 9 13 10 -80 -7z"/>
<path d="M1816 2545 c-3 -8 -1 -15 4 -15 6 0 10 7 10 15 0 8 -2 15 -4 15 -2 0
-6 -7 -10 -15z"/>
<path d="M1570 2536 c0 -9 5 -16 10 -16 6 0 10 4 10 9 0 6 -4 13 -10 16 -5 3
-10 -1 -10 -9z"/>
<path d="M51 2395 c1 -80 6 -145 11 -145 5 0 6 16 2 35 -3 19 -2 35 3 35 5 0
6 27 2 63 -3 34 -2 69 2 78 4 8 4 21 0 28 -5 7 -6 22 -4 32 3 11 0 19 -6 19
-9 0 -11 -41 -10 -145z"/>
<path d="M1270 2510 c-13 -8 -12 -10 3 -10 9 0 17 5 17 10 0 12 -1 12 -20 0z"/>
<path d="M1150 2495 c0 -8 2 -15 4 -15 2 0 6 7 10 15 3 8 1 15 -4 15 -6 0 -10
-7 -10 -15z"/>
<path d="M1816 2484 c-4 -15 -3 -31 1 -35 5 -5 9 7 10 26 1 42 -2 45 -11 9z"/>
<path d="M1591 2484 c0 -11 3 -14 6 -6 3 7 2 16 -1 19 -3 4 -6 -2 -5 -13z"/>
<path d="M2060 2461 c-8 -6 -18 -7 -24 -4 -5 3 -6 1 -3 -4 8 -12 57 -5 57 8 0
11 -11 11 -30 0z"/>
<path d="M1150 2446 c0 -8 4 -17 8 -20 4 -2 8 4 8 15 0 10 -4 19 -8 19 -4 0
-8 -6 -8 -14z"/>
<path d="M1810 2405 c0 -14 4 -25 9 -25 4 0 6 11 3 25 -2 14 -6 25 -8 25 -2 0
-4 -11 -4 -25z"/>
<path d="M1382 2340 c-18 -4 -42 -17 -53 -29 -11 -11 -24 -21 -30 -21 -6 0 -7
-5 -4 -10 5 -8 11 -7 21 1 9 7 14 8 14 1 0 -6 -4 -14 -10 -17 -12 -8 -13 -52
-1 -59 5 -3 8 0 8 7 -2 30 17 87 34 103 23 21 24 11 2 -26 -13 -23 -14 -38 -7
-80 l9 -53 12 33 c10 27 10 31 -3 26 -19 -7 -18 17 2 57 15 28 38 51 54 52 3
0 11 4 17 8 9 5 11 3 7 -6 -4 -13 3 -13 56 -1 70 17 113 6 62 -15 -39 -17 -93
-114 -73 -133 11 -11 13 -9 8 10 -3 12 -1 20 3 17 5 -3 11 7 15 22 6 27 37 73
49 73 3 0 3 -6 0 -14 -5 -12 0 -13 30 -4 24 8 46 8 68 1 32 -9 32 -10 -17 -11
-75 -2 -102 -17 -130 -75 -13 -28 -22 -54 -19 -59 3 -4 0 -8 -5 -8 -6 0 -11 5
-11 11 0 5 -4 8 -9 5 -5 -4 -11 -3 -14 1 -2 5 -2 2 0 -6 2 -7 -1 -19 -7 -26
-8 -9 -4 -11 15 -8 13 3 29 11 35 19 6 7 19 10 28 7 14 -6 15 -4 4 9 -13 17
-8 43 16 71 13 14 13 17 1 17 -8 1 2 8 21 16 21 9 58 14 95 13 51 -2 63 -7 82
-30 27 -31 29 -44 7 -35 -8 3 -12 2 -9 -4 3 -6 12 -10 20 -10 7 0 17 -9 20
-20 3 -11 11 -20 16 -20 6 0 7 -4 4 -10 -3 -5 -3 -15 1 -21 5 -8 9 -8 14 1 5
8 9 7 13 -5 4 -9 3 -14 -2 -11 -4 3 -16 -3 -26 -14 -16 -17 -16 -21 -2 -35 22
-21 34 -19 14 3 -18 20 -13 32 12 32 14 0 14 -2 1 -10 -12 -8 -12 -10 3 -16 9
-3 17 -13 17 -21 0 -8 7 -28 16 -45 13 -26 14 -36 4 -51 -7 -12 -7 -16 -1 -12
7 4 11 -9 11 -39 0 -25 -4 -46 -9 -46 -6 0 -9 -18 -8 -40 1 -21 -2 -43 -6 -47
-11 -10 -27 17 -27 47 0 14 -7 34 -16 45 -14 19 -14 17 -8 -25 4 -25 13 -51
21 -58 16 -16 17 -29 3 -37 -5 -3 -10 -1 -10 4 0 6 -5 11 -11 11 -8 0 -8 -4 0
-14 7 -8 16 -27 21 -43 7 -23 8 -24 9 -6 1 12 13 36 28 54 25 29 28 41 31 131
3 73 1 102 -9 115 -10 12 -10 14 -1 9 25 -15 3 54 -41 129 -81 135 -99 157
-146 177 -25 10 -64 28 -87 39 -44 20 -174 25 -242 9z m223 -40 c3 -5 2 -10
-4 -10 -5 0 -13 5 -16 10 -3 6 -2 10 4 10 5 0 13 -4 16 -10z"/>
<path d="M1517 2309 c-9 -5 -21 -8 -26 -5 -5 3 -14 -1 -21 -10 -7 -8 -19 -13
-26 -10 -8 3 -13 2 -11 -2 2 -7 -6 -12 -18 -12 -3 0 0 10 6 23 12 22 12 22
-10 3 -11 -11 -21 -29 -21 -40 0 -17 2 -18 10 -6 9 13 11 13 20 0 11 -17 13
-37 3 -26 -8 8 -43 -95 -36 -107 7 -12 20 1 42 44 12 23 19 49 16 59 -5 17 30
55 81 87 23 14 16 16 -9 2z m-86 -116 c-8 -15 -10 -15 -11 -2 0 17 10 32 18
25 2 -3 -1 -13 -7 -23z"/>
<path d="M1206 2295 c-20 -20 -21 -32 -1 -15 15 12 35 6 35 -11 0 -5 -6 -9
-12 -8 -27 3 -36 -2 -41 -23 -6 -22 -6 -22 13 2 17 22 19 23 25 7 8 -19 -12
-50 -26 -42 -10 7 -53 -34 -45 -42 3 -3 12 0 21 7 8 7 15 8 15 2 0 -10 -29
-26 -42 -24 -14 3 -8 -16 6 -21 21 -8 49 28 41 51 -5 16 -2 19 13 15 24 -6 31
4 37 55 6 49 -13 72 -39 47z"/>
<path d="M1466 2215 c-22 -52 -19 -58 5 -12 11 22 18 41 15 44 -3 3 -12 -12
-20 -32z"/>
<path d="M50 2233 c0 -4 5 -15 10 -23 8 -13 10 -13 10 2 0 9 -4 20 -10 23 -5
3 -10 3 -10 -2z"/>
<path d="M1605 2232 c-29 -21 -49 -57 -50 -88 -1 -19 2 -34 7 -34 4 0 8 11 8
25 0 18 4 23 15 19 12 -5 13 -10 4 -20 -8 -10 -8 -14 -1 -14 6 0 16 8 21 18 6
9 11 12 11 7 0 -6 10 -12 22 -12 17 -2 19 0 8 7 -8 5 -12 12 -8 15 3 3 20 -2
37 -13 17 -10 29 -21 26 -24 -3 -2 15 -14 40 -25 38 -17 46 -18 56 -6 10 11 9
12 -5 7 -10 -4 -33 5 -58 22 -31 22 -37 30 -24 32 10 2 26 -5 37 -17 11 -11
26 -18 34 -15 20 8 9 24 -16 24 -10 0 -19 5 -19 11 0 8 -14 9 -42 5 -30 -4
-39 -3 -28 4 10 7 11 10 3 11 -7 1 -19 2 -25 3 -7 1 -23 -1 -35 -6 -21 -7 -22
-6 -11 12 7 10 17 16 23 13 5 -4 7 -3 3 2 -4 4 0 14 10 21 9 7 13 16 9 21 -5
4 -23 -9 -40 -30 -32 -37 -47 -46 -47 -26 0 5 6 7 13 3 6 -4 9 -3 4 1 -4 5 3
19 15 32 21 23 23 30 3 15z"/>
<path d="M1661 2213 l-13 -28 22 23 c16 17 25 20 40 12 10 -5 25 -10 32 -10
13 1 -48 30 -62 30 -4 0 -12 -12 -19 -27z"/>
<path d="M1266 2202 c6 -31 5 -33 -18 -27 -21 5 -26 2 -31 -16 -8 -32 -1 -36
31 -17 29 18 41 63 23 81 -8 8 -10 2 -5 -21z"/>
<path d="M1686 2191 c-3 -5 1 -11 9 -14 9 -4 12 -1 8 9 -6 16 -10 17 -17 5z"/>
<path d="M52 2143 c-1 -34 1 -43 8 -33 8 13 5 68 -4 78 -2 1 -4 -19 -4 -45z"/>
<path d="M1065 2180 c4 -6 11 -8 16 -5 14 9 11 15 -7 15 -8 0 -12 -5 -9 -10z"/>
<path d="M1290 2185 c0 -5 9 -23 20 -40 11 -16 20 -24 20 -16 0 11 5 9 21 -5
21 -19 21 -19 8 9 -6 14 -21 30 -33 33 -12 4 -24 12 -28 18 -4 6 -8 7 -8 1z"/>
<path d="M670 2161 c0 -6 4 -13 10 -16 6 -3 7 1 4 9 -7 18 -14 21 -14 7z"/>
<path d="M1126 2105 c-4 -13 -2 -14 14 -5 23 13 26 20 6 20 -8 0 -16 -7 -20
-15z"/>
<path d="M1185 2110 c3 -5 -3 -10 -14 -10 -11 0 -23 -4 -26 -10 -3 -5 -15 -10
-26 -10 -10 0 -19 -7 -19 -15 0 -20 12 -19 44 6 14 11 32 19 39 16 7 -2 -3
-13 -23 -25 -25 -16 -30 -22 -16 -22 18 0 18 -1 1 -20 -14 -15 -15 -23 -6 -34
9 -11 9 -16 0 -22 -8 -5 -9 -3 -4 7 7 11 5 11 -11 -1 -29 -22 -30 -24 -10 -16
15 5 17 2 13 -14 -5 -18 -3 -19 11 -8 13 11 15 11 7 -2 -12 -23 -37 -50 -45
-50 -4 0 -6 11 -5 25 2 14 -1 23 -5 20 -5 -3 -6 -13 -3 -22 4 -9 2 -14 -3 -10
-14 8 -9 -152 5 -166 8 -8 11 -7 11 5 0 43 49 18 50 -24 0 -24 20 -23 20 0 0
34 37 55 108 63 l67 8 -72 -3 c-40 -2 -73 -2 -73 0 0 2 17 8 38 13 26 8 54 8
97 -1 50 -10 56 -13 35 -19 -23 -7 -24 -7 -3 -8 13 -1 30 -12 39 -26 33 -51
-8 -133 -81 -161 -39 -15 -39 -15 -6 -9 19 3 41 11 49 17 8 7 22 13 31 13 11
0 15 8 14 23 -2 13 1 21 6 18 12 -8 21 18 14 43 -4 15 1 23 18 30 l24 10 -23
0 c-13 1 -20 5 -17 11 3 5 -3 15 -15 22 -11 7 -20 21 -20 30 0 24 -34 40 -101
45 -55 5 -60 3 -89 -26 -18 -17 -42 -34 -56 -37 -21 -5 -24 -3 -24 20 0 15 7
43 15 63 9 20 14 42 12 47 -2 6 -1 42 4 79 8 63 31 122 54 139 6 4 0 8 -13 8
-13 0 -20 -4 -17 -10z m-42 -222 c-4 -7 -9 -21 -10 -30 -2 -10 -9 -32 -17 -50
l-15 -33 5 40 c4 29 2 36 -5 25 -9 -12 -11 -11 -11 8 0 12 6 22 14 22 7 0 19
7 26 15 15 18 24 20 13 3z"/>
<path d="M1281 2106 c2 -2 18 -6 34 -10 22 -5 26 -4 15 4 -14 9 -59 15 -49 6z"/>
<path d="M1405 2100 c-3 -5 -1 -10 4 -10 6 0 11 5 11 10 0 6 -2 10 -4 10 -3 0
-8 -4 -11 -10z"/>
<path d="M56 2075 c-3 -8 -1 -15 4 -15 6 0 10 7 10 15 0 8 -2 15 -4 15 -2 0
-6 -7 -10 -15z"/>
<path d="M1430 2075 c0 -8 2 -15 4 -15 2 0 6 7 10 15 3 8 1 15 -4 15 -6 0 -10
-7 -10 -15z"/>
<path d="M1455 2071 c-3 -6 4 -8 16 -6 30 6 37 15 11 15 -11 0 -23 -4 -27 -9z"/>
<path d="M1750 2066 c0 -3 8 -20 18 -38 10 -18 17 -39 15 -46 -3 -8 1 -10 13
-5 13 5 16 3 12 -9 -4 -10 -1 -15 10 -14 12 1 17 -7 16 -25 -1 -16 4 -26 13
-26 8 0 12 6 9 13 -3 8 -1 16 4 19 17 11 11 20 -21 32 -17 7 -28 17 -24 23 3
5 -1 13 -10 16 -11 5 -13 9 -6 13 7 5 -1 16 -19 29 -16 13 -30 20 -30 18z"/>
<path d="M1090 2030 c0 -8 -3 -25 -6 -37 -4 -14 -2 -23 5 -23 7 0 9 5 6 10 -4
6 -2 16 4 23 6 8 6 18 1 27 -9 13 -10 13 -10 0z"/>
<path d="M1777 1927 c-6 -16 14 -51 31 -55 10 -2 10 2 0 18 -7 11 -16 20 -20
20 -4 0 -5 7 -2 15 4 8 4 15 1 15 -3 0 -7 -6 -10 -13z"/>
<path d="M1841 1877 c2 -1 13 -9 24 -17 19 -14 19 -14 6 3 -7 9 -18 17 -24 17
-6 0 -8 -1 -6 -3z"/>
<path d="M1595 1823 c-11 -2 -27 -7 -35 -10 -8 -4 -19 -7 -25 -7 -5 -1 -10
-10 -10 -21 0 -11 -6 -25 -14 -31 -9 -7 -12 -21 -8 -42 4 -20 2 -32 -6 -35 -7
-3 -1 -13 16 -27 15 -12 26 -25 22 -28 -3 -3 4 -16 16 -28 29 -31 19 -57 -16
-44 -28 11 -45 6 -45 -11 0 -6 6 -7 13 -3 9 5 9 4 0 -6 -10 -11 -17 -10 -38 4
-14 9 -34 16 -43 14 -9 -1 -23 1 -29 5 -8 5 -13 4 -13 -3 0 -11 16 -20 42 -24
26 -4 35 -16 30 -42 -3 -19 -9 -24 -23 -21 -11 3 -19 1 -19 -3 0 -4 -29 -7
-65 -7 -38 1 -65 6 -65 12 0 6 16 26 35 45 38 36 46 57 17 41 -27 -15 -84 8
-113 46 -35 44 -29 79 20 101 20 9 38 21 39 25 2 4 10 3 17 -3 9 -7 21 -7 39
0 34 13 39 13 31 0 -3 -5 -2 -10 4 -10 5 0 12 4 16 9 8 14 -62 34 -92 26 -15
-3 -29 -2 -33 5 -5 7 -11 6 -20 -5 -11 -13 -10 -14 5 -9 37 14 4 -17 -40 -37
l-43 -20 16 -40 c20 -53 55 -88 92 -95 35 -8 36 -11 10 -44 -21 -26 -24 -47
-13 -76 6 -16 7 -16 14 2 7 17 8 16 8 -6 1 -14 -3 -40 -8 -58 -5 -18 -6 -32
-1 -32 16 0 24 24 21 61 -3 43 5 50 40 35 25 -11 29 -15 29 -35 0 -5 15 -14
33 -20 27 -9 30 -9 15 3 -10 7 -18 15 -18 17 0 2 27 2 61 1 34 -2 65 0 70 5 9
9 -123 9 -138 0 -14 -9 -22 1 -16 22 4 15 17 17 103 17 62 0 97 -3 93 -9 -8
-13 67 -1 81 13 7 7 6 14 -2 22 -9 9 -12 9 -12 1 0 -8 -27 -11 -87 -8 -49 2
-90 4 -92 5 -2 0 2 7 9 15 7 9 21 13 31 10 11 -4 19 -2 19 5 0 6 -4 8 -10 5
-6 -3 -7 1 -4 9 9 22 24 20 24 -3 0 -11 4 -22 8 -25 5 -3 6 8 4 24 -3 23 0 28
15 27 13 -2 19 6 21 31 3 28 6 31 23 22 33 -18 21 -3 -15 18 -42 25 -81 104
-66 133 14 24 48 42 67 35 12 -5 13 -3 5 6 -8 10 4 14 56 16 73 2 112 -14 112
-48 0 -12 7 -20 16 -20 10 0 14 6 11 14 -3 8 1 20 8 26 19 16 10 30 -19 30
-13 0 -31 9 -41 20 -14 15 -30 20 -69 19 -28 -1 -60 -3 -71 -6z m85 -13 c0 -5
-8 -10 -17 -10 -15 0 -16 2 -3 10 19 12 20 12 20 0z"/>
<path d="M1410 1785 c0 -8 4 -15 10 -15 5 0 7 7 4 15 -4 8 -8 15 -10 15 -2 0
-4 -7 -4 -15z"/>
<path d="M1034 1756 c-10 -8 -16 -17 -13 -20 3 -3 14 3 24 14 21 23 17 26 -11
6z"/>
<path d="M1673 1763 c34 -9 16 -18 -29 -14 -36 2 -45 0 -42 -10 3 -9 20 -14
43 -14 22 0 40 -5 42 -12 3 -7 3 -13 1 -13 -1 0 -27 -3 -55 -6 -33 -4 -53 -2
-53 4 0 6 -9 8 -20 5 -27 -7 -25 -23 3 -24 12 0 34 -3 50 -5 30 -5 100 23 91
37 -3 5 1 9 8 9 9 0 9 3 -2 10 -8 5 -11 10 -6 10 5 0 3 7 -4 15 -7 8 -20 14
-29 14 -13 -1 -13 -2 2 -6z"/>
<path d="M1565 1730 c-3 -5 -2 -10 4 -10 5 0 13 5 16 10 3 6 2 10 -4 10 -5 0
-13 -4 -16 -10z"/>
<path d="M1040 1718 c0 -9 11 -23 25 -32 14 -9 25 -13 25 -8 0 5 -11 19 -25
32 -19 18 -25 20 -25 8z"/>
<path d="M1110 1715 c-7 -9 -10 -18 -7 -21 3 -3 -1 -21 -9 -40 -12 -29 -12
-33 1 -28 9 4 16 0 17 -7 0 -8 2 -18 3 -24 1 -5 5 -33 9 -60 9 -59 20 -85 29
-62 3 7 -2 40 -11 73 -9 32 -16 87 -15 122 0 34 -1 62 -2 62 -1 0 -8 -7 -15
-15z"/>
<path d="M1887 1705 c-12 -18 -14 -26 -5 -31 6 -4 14 -2 16 4 2 7 10 12 18 12
8 0 14 9 14 20 0 27 -21 25 -43 -5z"/>
<path d="M1023 1640 c3 -74 36 -155 67 -163 11 -3 22 -1 25 3 3 5 -4 10 -16
12 -25 4 -55 72 -69 157 l-9 56 2 -65z"/>
<path d="M1350 1688 c-19 -5 -47 -8 -62 -6 -15 3 -25 1 -22 -4 9 -14 99 -9
120 7 22 16 13 17 -36 3z"/>
<path d="M1757 1667 c-7 -26 -30 -36 -42 -17 -3 5 -13 6 -22 3 -11 -4 -6 -9
18 -17 31 -11 35 -10 47 12 7 13 11 29 9 35 -2 7 -7 0 -10 -16z"/>
<path d="M1788 1678 c7 -7 12 -21 12 -32 0 -10 3 -17 6 -13 10 10 -5 57 -18
57 -9 0 -9 -3 0 -12z"/>
<path d="M1951 1674 c0 -11 3 -14 6 -6 3 7 2 16 -1 19 -3 4 -6 -2 -5 -13z"/>
<path d="M1854 1647 c-3 -8 0 -26 6 -42 14 -37 32 -20 24 23 -7 33 -21 42 -30
19z"/>
<path d="M1933 1588 c-10 -38 -10 -41 3 -24 12 17 20 66 11 66 -2 0 -8 -19
-14 -42z"/>
<path d="M1823 1588 c-7 -18 -13 -50 -15 -70 -1 -21 -6 -38 -10 -38 -4 0 -8
-9 -8 -21 0 -11 -4 -17 -10 -14 -5 3 -7 0 -4 -9 4 -11 0 -14 -15 -11 -15 3
-25 -6 -40 -39 -23 -46 -27 -86 -10 -86 6 0 8 9 4 21 -5 16 -4 19 6 14 9 -6
11 -3 6 8 -4 10 -2 17 4 17 7 0 9 9 6 21 -5 17 -3 18 11 7 13 -11 15 -11 9 4
-3 10 -2 20 3 23 6 4 10 0 10 -7 1 -7 7 -2 15 12 8 14 14 22 15 18 0 -15 -34
-94 -53 -120 -11 -14 -16 -31 -12 -37 4 -7 1 -10 -7 -9 -7 2 -12 -3 -11 -9 2
-7 -4 -13 -12 -13 -8 0 -15 -5 -15 -11 0 -13 -51 -55 -63 -51 -4 1 -10 -4 -13
-12 -3 -8 -11 -13 -19 -10 -7 3 -15 -2 -18 -10 -8 -20 -8 -20 37 -1 43 18 166
134 166 157 0 8 9 41 20 73 11 32 20 71 20 87 0 32 2 33 30 16 16 -11 23 -10
37 5 17 18 17 18 -9 12 -21 -5 -29 -2 -38 15 -8 15 -8 25 -1 34 6 7 7 24 3 40
l-7 27 -12 -33z"/>
<path d="M1700 1574 c-25 -7 -56 -14 -70 -14 -24 0 -23 -2 14 -33 37 -32 39
-35 28 -65 -7 -20 -7 -32 -1 -32 6 0 6 -7 1 -17 -5 -10 -9 -41 -8 -69 1 -48 0
-50 -24 -47 -14 2 -18 0 -10 -4 8 -3 22 -16 32 -27 14 -16 17 -17 12 -3 -3 9
-1 17 4 17 8 0 8 10 0 32 -8 21 -8 33 -1 35 6 2 8 15 5 28 -2 14 2 35 11 48
20 31 11 72 -21 97 -14 11 -23 22 -21 24 2 2 28 11 57 20 28 10 52 19 52 22 0
6 -10 4 -60 -12z"/>
<path d="M99 1548 c-5 -19 -6 -119 -1 -122 4 -2 9 25 10 60 2 35 1 64 -2 64
-4 0 -6 -1 -7 -2z"/>
<path d="M1755 1530 c-5 -8 -10 -21 -12 -29 -1 -11 2 -11 14 2 8 8 13 21 11
28 -3 10 -6 10 -13 -1z"/>
<path d="M1190 1520 c0 -5 5 -10 11 -10 5 0 7 5 4 10 -3 6 -8 10 -11 10 -2 0
-4 -4 -4 -10z"/>
<path d="M1375 1500 c-3 -5 -12 -7 -20 -3 -9 3 -15 -1 -15 -10 0 -15 23 -17
36 -4 4 4 13 2 21 -4 9 -8 13 -8 13 -1 0 6 7 9 15 6 8 -4 15 -2 15 4 0 19 -54
30 -65 12z"/>
<path d="M1567 1503 c-11 -10 -8 -25 3 -18 6 4 22 -1 35 -9 22 -15 25 -15 25
-1 0 9 -12 20 -26 25 -30 12 -29 12 -37 3z"/>
<path d="M1321 1484 c0 -11 3 -14 6 -6 3 7 2 16 -1 19 -3 4 -6 -2 -5 -13z"/>
<path d="M1140 1440 c0 -11 42 -103 51 -110 3 -3 13 -18 22 -35 25 -45 70 -92
75 -77 2 6 8 9 13 6 6 -3 5 -12 -3 -22 -8 -10 -9 -13 -1 -9 7 4 18 -2 27 -15
9 -12 16 -17 16 -11 0 15 30 5 45 -14 7 -9 18 -10 40 -3 l30 10 -31 -3 c-22
-2 -30 1 -27 9 2 6 -7 14 -21 18 -14 3 -37 18 -51 32 -14 14 -30 22 -37 18 -7
-5 -9 0 -6 14 4 12 2 20 -3 16 -5 -3 -9 0 -9 6 0 6 -4 8 -10 5 -6 -4 -7 6 -4
25 4 18 2 30 -4 30 -5 0 -8 -9 -5 -20 4 -16 2 -19 -11 -14 -9 3 -16 12 -16 18
0 7 -9 22 -20 33 -11 12 -25 40 -32 62 -12 37 -28 55 -28 31z"/>
<path d="M1177 1433 c-11 -10 -8 -20 7 -26 10 -4 12 0 9 14 -6 21 -7 22 -16
12z"/>
<path d="M1211 1414 c0 -11 3 -14 6 -6 3 7 2 16 -1 19 -3 4 -6 -2 -5 -13z"/>
<path d="M56 1405 c-3 -8 -1 -15 4 -15 6 0 10 7 10 15 0 8 -2 15 -4 15 -2 0
-6 -7 -10 -15z"/>
<path d="M1548 1384 c-16 -8 -28 -17 -28 -19 0 -6 52 16 65 27 15 13 -7 9 -37
-8z"/>
<path d="M1580 1365 c-13 -14 -21 -27 -18 -30 6 -6 48 33 48 45 0 15 -4 13
-30 -15z"/>
<path d="M93 1356 c1 -11 9 -21 17 -23 10 -3 11 -2 4 4 -6 4 -14 15 -17 23 -5
11 -6 9 -4 -4z"/>
<path d="M1225 1359 c-10 -15 3 -25 16 -12 7 7 7 13 1 17 -6 3 -14 1 -17 -5z"/>
<path d="M1455 1350 c-3 -5 -2 -10 4 -10 5 0 13 5 16 10 3 6 2 10 -4 10 -5 0
-13 -4 -16 -10z"/>
<path d="M1532 1338 c-13 -13 -112 -18 -112 -5 0 4 -6 7 -13 7 -8 0 -14 -7
-14 -15 0 -9 10 -15 24 -15 13 0 22 -4 18 -9 -3 -6 10 -8 31 -5 21 3 43 -1 52
-8 13 -11 15 -10 9 5 -7 19 3 23 21 5 8 -8 10 -4 6 18 -6 35 -8 36 -22 22z"/>
<path d="M87 1301 c-3 -11 1 -22 8 -25 18 -6 24 2 18 25 -7 24 -19 24 -26 0z"/>
<path d="M1316 1293 c-6 -15 -8 -15 -16 -3 -13 21 -12 6 1 -22 6 -13 27 -33
46 -46 38 -24 55 -23 30 2 -8 8 -17 12 -21 9 -3 -4 -6 0 -6 7 0 7 -3 11 -6 7
-13 -13 -32 18 -22 36 5 10 8 21 5 23 -2 3 -8 -3 -11 -13z"/>
<path d="M1821 1284 c0 -11 3 -14 6 -6 3 7 2 16 -1 19 -3 4 -6 -2 -5 -13z"/>
<path d="M1492 1274 c2 -5 10 -24 17 -41 7 -18 17 -33 22 -33 6 0 6 8 0 19 -6
10 -9 20 -7 22 1 2 -6 12 -17 23 -11 10 -18 15 -15 10z"/>
<path d="M1560 1267 c0 -8 7 -17 15 -21 8 -3 15 -2 15 3 0 5 -7 14 -15 21 -12
10 -15 10 -15 -3z"/>
<path d="M1606 1271 c-4 -6 -2 -11 3 -11 6 0 11 -5 11 -11 0 -5 -5 -7 -12 -3
-7 5 -9 2 -5 -8 7 -19 -39 -44 -47 -25 -2 7 -5 5 -5 -4 -1 -27 -28 -30 -45 -6
-9 13 -15 16 -13 7 4 -25 -42 -24 -71 2 -15 13 -20 15 -13 6 11 -15 11 -18 1
-18 -16 0 -7 -10 12 -14 7 -2 21 -6 30 -10 23 -10 107 1 118 16 3 3 12 8 20
10 8 2 23 11 34 21 11 10 26 15 33 13 10 -4 10 -1 1 14 -7 10 -16 16 -21 13
-5 -3 -13 0 -17 7 -5 9 -9 9 -14 1z"/>
<path d="M1768 1241 c-7 -47 8 -103 40 -149 25 -35 34 -65 26 -86 -11 -28 -34
-19 -34 13 0 17 -5 33 -10 36 -7 4 -9 -8 -5 -35 4 -35 2 -41 -10 -36 -8 3 -15
0 -15 -6 0 -6 -3 -9 -6 -5 -3 3 -18 1 -33 -5 -52 -21 -95 -27 -108 -16 -10 8
-13 6 -13 -6 0 -9 -8 -16 -21 -16 -11 0 -17 5 -14 10 3 6 1 10 -4 10 -6 0 -11
-9 -11 -20 0 -18 4 -20 43 -14 72 11 209 54 258 81 51 27 124 96 99 93 -20 -3
-60 10 -60 20 0 7 -48 34 -65 35 -32 3 -44 22 -47 80 l-3 60 -7 -44z m132
-174 c0 -6 -10 -1 -23 11 -13 12 -29 22 -35 22 -7 0 -12 2 -12 4 0 2 -3 12 -7
22 -4 12 7 7 35 -16 23 -18 42 -38 42 -43z m-29 -4 l24 -27 -32 23 c-33 23
-40 31 -25 31 5 0 19 -12 33 -27z"/>
<path d="M68 1263 c-16 -4 -18 -21 -17 -191 1 -184 14 -380 17 -269 2 65 25
58 32 -9 l6 -49 4 57 c4 47 1 61 -15 80 -19 22 -20 37 -20 193 1 94 4 176 9
183 4 6 6 11 4 11 -2 -1 -11 -3 -20 -6z"/>
<path d="M1400 1260 c-9 -6 -10 -10 -3 -10 6 0 15 5 18 10 8 12 4 12 -15 0z"/>
<path d="M1433 1256 c-9 -11 -9 -15 0 -19 7 -3 14 3 14 14 2 22 2 22 -14 5z"/>
<path d="M190 1242 c0 -7 -7 -12 -16 -12 -14 0 -15 -8 -7 -52 4 -29 8 -108 8
-175 -1 -78 3 -121 10 -120 5 1 13 9 16 17 7 16 0 342 -7 349 -2 2 -4 -1 -4
-7z"/>
<path d="M1460 1245 c0 -5 5 -17 10 -25 5 -8 10 -10 10 -5 0 6 -5 17 -10 25
-5 8 -10 11 -10 5z"/>
<path d="M1821 1224 c0 -11 3 -14 6 -6 3 7 2 16 -1 19 -3 4 -6 -2 -5 -13z"/>
<path d="M1295 1170 c4 -6 11 -8 16 -5 14 9 11 15 -7 15 -8 0 -12 -5 -9 -10z"/>
<path d="M1530 1151 c0 -5 5 -13 10 -16 6 -3 10 -2 10 4 0 5 -4 13 -10 16 -5
3 -10 2 -10 -4z"/>
<path d="M1230 1132 c0 -14 6 -22 16 -22 14 0 15 3 3 18 -7 9 -15 19 -16 21
-2 2 -3 -5 -3 -17z"/>
<path d="M1455 1141 c-3 -5 2 -11 10 -15 8 -3 17 -1 20 3 3 5 -2 11 -10 15 -8
3 -17 1 -20 -3z"/>
<path d="M1426 1131 c-3 -4 -18 -7 -33 -5 -17 2 -20 1 -8 -3 11 -3 23 -10 26
-16 4 -5 15 -7 25 -2 13 5 15 9 6 12 -6 3 -10 9 -6 14 3 5 3 9 0 9 -3 0 -7 -4
-10 -9z"/>
<path d="M1900 1130 c0 -8 17 -13 79 -25 30 -6 34 -10 38 -43 2 -15 12 -32 21
-39 9 -7 22 -16 27 -20 6 -5 44 -21 85 -36 41 -16 84 -32 95 -37 11 -4 54 -20
95 -35 88 -31 145 -63 179 -99 14 -14 32 -26 40 -26 36 0 -107 114 -157 125
-18 3 -32 10 -32 14 0 8 -97 37 -117 35 -7 -1 -13 2 -13 7 0 5 -5 9 -11 9 -11
0 -67 23 -101 41 -10 5 -24 9 -32 9 -17 0 -68 58 -61 70 8 12 -31 41 -61 45
-16 2 -39 6 -51 9 -13 3 -23 1 -23 -4z"/>
<path d="M1182 1118 c1 -7 -1 -23 -5 -35 -8 -23 21 -89 51 -116 37 -33 164
-67 252 -67 55 0 76 15 29 22 -16 3 -32 1 -35 -4 -8 -12 -44 -10 -44 4 0 6 -3
8 -7 5 -3 -4 -13 -1 -21 6 -13 10 -14 9 -8 -1 9 -14 -15 -11 -94 15 -66 22
-78 36 -76 89 2 35 -1 44 -15 44 -12 0 -15 6 -11 25 2 15 0 25 -7 25 -7 0 -11
-6 -9 -12z"/>
<path d="M1456 1101 c-3 -5 8 -14 24 -20 17 -5 30 -7 30 -4 0 3 6 0 14 -6 10
-8 16 -9 21 -1 3 5 0 10 -8 10 -8 0 -20 7 -27 15 -14 17 -46 20 -54 6z"/>
<path d="M1246 1088 c3 -5 10 -6 15 -3 13 9 11 12 -6 12 -8 0 -12 -4 -9 -9z"/>
<path d="M1358 1047 c12 -7 19 -17 15 -22 -4 -4 -2 -5 6 0 12 7 11 10 -4 22
-11 7 -24 13 -29 13 -6 -1 -1 -6 12 -13z"/>
<path d="M1990 1026 c0 -4 7 -14 15 -22 8 -9 15 -11 15 -6 0 5 -7 15 -15 22
-8 7 -15 9 -15 6z"/>
<path d="M1496 1012 c-3 -4 4 -16 15 -25 22 -19 25 -10 5 16 -8 10 -17 14 -20
9z"/>
<path d="M2042 949 c-18 -16 -29 -29 -25 -29 13 0 69 48 63 53 -3 3 -20 -8
-38 -24z"/>
<path d="M1071 953 c-1 -12 4 -25 9 -28 12 -7 12 2 0 30 -8 19 -9 19 -9 -2z"/>
<path d="M1440 966 c0 -2 7 -6 15 -10 8 -3 15 -1 15 4 0 6 -7 10 -15 10 -8 0
-15 -2 -15 -4z"/>
<path d="M1490 959 c0 -5 5 -7 10 -4 6 3 10 8 10 11 0 2 -4 4 -10 4 -5 0 -10
-5 -10 -11z"/>
<path d="M1245 920 c-3 -5 -1 -10 4 -10 6 0 11 5 11 10 0 6 -2 10 -4 10 -3 0
-8 -4 -11 -10z"/>
<path d="M1980 906 c-9 -12 -8 -15 8 -13 12 0 18 6 15 14 -6 16 -8 16 -23 -1z"/>
<path d="M1080 906 c0 -2 8 -10 18 -17 15 -13 16 -12 3 4 -13 16 -21 21 -21
13z"/>
<path d="M1520 879 c0 -5 5 -7 10 -4 6 3 10 8 10 11 0 2 -4 4 -10 4 -5 0 -10
-5 -10 -11z"/>
<path d="M1680 881 c0 -5 5 -13 10 -16 6 -3 10 -2 10 4 0 5 -4 13 -10 16 -5 3
-10 2 -10 -4z"/>
<path d="M1933 874 c-17 -14 -17 -15 2 -6 11 5 26 7 33 5 17 -6 15 4 -2 10 -8
3 -22 -1 -33 -9z"/>
<path d="M1460 876 c0 -2 7 -6 15 -10 8 -3 15 -1 15 4 0 6 -7 10 -15 10 -8 0
-15 -2 -15 -4z"/>
<path d="M1127 848 c7 -8 9 -19 5 -23 -4 -5 -1 -5 6 -1 7 4 12 1 12 -8 0 -8 6
-13 13 -10 7 2 22 -4 33 -15 14 -13 26 -16 35 -10 11 7 11 9 -3 9 -9 0 -38 17
-65 37 -26 20 -42 30 -36 21z"/>
<path d="M1976 843 c-6 -14 -5 -15 5 -6 7 7 10 15 7 18 -3 3 -9 -2 -12 -12z"/>
<path d="M821 824 c0 -11 3 -14 6 -6 3 7 2 16 -1 19 -3 4 -6 -2 -5 -13z"/>
<path d="M1092 820 c0 -14 2 -19 5 -12 2 6 2 18 0 25 -3 6 -5 1 -5 -13z"/>
<path d="M2066 823 c-6 -14 -5 -15 5 -6 7 7 10 15 7 18 -3 3 -9 -2 -12 -12z"/>
<path d="M862 810 c0 -14 2 -19 5 -12 2 6 2 18 0 25 -3 6 -5 1 -5 -13z"/>
<path d="M1936 813 c-6 -14 -5 -15 5 -6 7 7 10 15 7 18 -3 3 -9 -2 -12 -12z"/>
<path d="M1986 813 c-6 -14 -5 -15 5 -6 7 7 10 15 7 18 -3 3 -9 -2 -12 -12z"/>
<path d="M2031 803 c-10 -26 -10 -27 4 -9 8 11 15 23 15 28 0 15 -7 8 -19 -19z"/>
<path d="M1767 802 c-21 -10 -35 -21 -31 -25 11 -11 26 -9 19 3 -3 6 -2 10 4
10 5 0 17 3 26 7 14 5 16 2 11 -15 -4 -12 -3 -29 2 -38 8 -15 10 -15 15 0 4
11 3 15 -4 11 -13 -9 -8 47 6 57 17 13 -8 8 -48 -10z"/>
<path d="M1870 779 c-12 -23 -20 -43 -18 -45 3 -2 14 17 26 41 27 56 20 60 -8
4z"/>
<path d="M2006 805 c-9 -26 -7 -32 5 -12 6 10 9 21 6 23 -2 3 -7 -2 -11 -11z"/>
<path d="M2168 809 c-4 -7 -14 -31 -23 -52 -9 -22 -11 -36 -6 -32 6 3 11 0 11
-7 0 -9 3 -9 10 2 5 8 10 20 10 25 0 6 -5 3 -10 -5 -14 -21 -13 3 2 35 7 16
14 21 18 14 5 -7 9 -5 13 6 4 9 3 14 -2 10 -5 -3 -11 0 -13 7 -3 8 -6 8 -10
-3z"/>
<path d="M1111 794 c0 -11 3 -14 6 -6 3 7 2 16 -1 19 -3 4 -6 -2 -5 -13z"/>
<path d="M1905 799 c-4 -6 -5 -12 -2 -15 2 -3 7 2 10 11 7 17 1 20 -8 4z"/>
<path d="M1942 773 c-23 -64 -24 -69 -7 -43 17 26 17 16 1 -35 -3 -11 5 3 18
30 28 56 34 84 10 45 l-15 -25 6 28 c3 15 3 27 1 27 -2 0 -9 -12 -14 -27z"/>
<path d="M2305 759 c-9 -17 -15 -33 -13 -35 3 -2 12 12 21 31 21 43 13 47 -8
4z"/>
<path d="M2385 760 c-9 -16 -13 -30 -11 -30 3 0 12 14 21 30 9 17 13 30 11 30
-3 0 -12 -13 -21 -30z"/>
<path d="M1091 764 c0 -11 3 -14 6 -6 3 7 2 16 -1 19 -3 4 -6 -2 -5 -13z"/>
<path d="M1246 772 c-4 -6 3 -8 16 -5 17 3 19 2 9 -5 -8 -6 -9 -12 -3 -16 6
-3 14 -2 17 4 5 8 11 7 21 -1 8 -6 14 -7 14 -3 0 5 20 8 45 6 25 -2 43 -8 40
-12 -3 -5 4 -6 15 -3 11 3 28 -1 37 -8 12 -10 14 -10 9 -1 -4 7 -1 12 8 12 9
0 16 -6 16 -12 0 -10 2 -10 8 -1 4 7 27 11 55 10 26 -1 47 1 47 6 0 4 6 7 14
7 8 0 17 4 20 8 6 10 -24 9 -40 0 -12 -8 -217 -2 -254 7 -61 15 -88 16 -94 7z"/>
<path d="M1670 771 c-22 -6 -23 -8 -7 -14 26 -10 39 -9 32 2 -3 5 3 12 12 14
12 3 13 5 3 5 -8 0 -26 -3 -40 -7z"/>
<path d="M1836 765 c-9 -26 -7 -32 5 -12 6 10 9 21 6 23 -2 3 -7 -2 -11 -11z"/>
<path d="M821 754 c0 -11 3 -14 6 -6 3 7 2 16 -1 19 -3 4 -6 -2 -5 -13z"/>
<path d="M2255 759 c-4 -6 -5 -12 -2 -15 2 -3 7 2 10 11 7 17 1 20 -8 4z"/>
<path d="M2413 758 c-15 -20 -25 -38 -20 -38 3 0 12 11 21 25 17 26 16 35 -1
13z"/>
<path d="M1905 749 c-4 -6 -5 -12 -2 -15 2 -3 7 2 10 11 7 17 1 20 -8 4z"/>
<path d="M2106 748 c3 -5 10 -6 15 -3 13 9 11 12 -6 12 -8 0 -12 -4 -9 -9z"/>
<path d="M2179 734 c-5 -15 -8 -29 -5 -31 2 -2 8 10 14 26 13 38 5 41 -9 5z"/>
<path d="M2581 720 c12 -21 27 -36 32 -33 6 4 3 11 -6 18 -9 7 -14 15 -10 18
7 8 -16 37 -29 37 -5 0 1 -18 13 -40z"/>
<path d="M1071 734 c0 -11 3 -14 6 -6 3 7 2 16 -1 19 -3 4 -6 -2 -5 -13z"/>
<path d="M1641 734 c0 -11 3 -14 6 -6 3 7 2 16 -1 19 -3 4 -6 -2 -5 -13z"/>
<path d="M1966 710 c-22 -56 -19 -65 5 -11 11 24 18 46 15 48 -2 2 -11 -14
-20 -37z"/>
<path d="M802 720 c0 -14 2 -19 5 -12 2 6 2 18 0 25 -3 6 -5 1 -5 -13z"/>
<path d="M1242 715 c0 -16 2 -22 5 -12 2 9 2 23 0 30 -3 6 -5 -1 -5 -18z"/>
<path d="M1996 725 c-9 -26 -7 -32 5 -12 6 10 9 21 6 23 -2 3 -7 -2 -11 -11z"/>
<path d="M2420 720 c-6 -11 -8 -20 -6 -20 3 0 10 9 16 20 6 11 8 20 6 20 -3 0
-10 -9 -16 -20z"/>
<path d="M911 714 c0 -11 3 -14 6 -6 3 7 2 16 -1 19 -3 4 -6 -2 -5 -13z"/>
<path d="M931 714 c0 -11 3 -14 6 -6 3 7 2 16 -1 19 -3 4 -6 -2 -5 -13z"/>
<path d="M1293 685 c0 -27 2 -38 4 -22 2 15 2 37 0 50 -2 12 -4 0 -4 -28z"/>
<path d="M1771 723 c-1 -7 -6 -12 -12 -10 -6 1 -14 -5 -16 -13 -4 -13 -3 -13
6 0 9 13 11 12 11 -5 1 -19 1 -19 11 -2 6 10 8 23 5 30 -3 9 -5 9 -5 0z"/>
<path d="M1820 722 c0 -6 -6 -9 -13 -6 -7 2 -17 -9 -25 -28 -16 -43 -7 -49 13
-7 l15 34 -5 -30 -4 -30 15 34 c8 18 13 36 10 39 -4 3 -6 0 -6 -6z"/>
<path d="M1868 715 c-3 -11 -9 -29 -13 -40 -3 -11 1 -7 10 8 9 16 15 33 12 40
-2 6 -6 3 -9 -8z"/>
<path d="M2011 703 c-10 -26 -10 -27 4 -9 8 11 15 23 15 28 0 15 -7 8 -19 -19z"/>
<path d="M2213 713 c-3 -10 -8 -22 -11 -27 -3 -5 0 -6 5 -3 11 7 25 47 17 47
-3 0 -7 -8 -11 -17z"/>
<path d="M1372 695 c0 -16 2 -22 5 -12 2 9 2 23 0 30 -3 6 -5 -1 -5 -18z"/>
<path d="M1607 701 c-4 -17 -3 -21 5 -13 5 5 8 16 6 23 -3 8 -7 3 -11 -10z"/>
<path d="M761 694 c0 -11 3 -14 6 -6 3 7 2 16 -1 19 -3 4 -6 -2 -5 -13z"/>
<path d="M1051 694 c0 -11 3 -14 6 -6 3 7 2 16 -1 19 -3 4 -6 -2 -5 -13z"/>
<path d="M1162 690 c0 -14 2 -19 5 -12 2 6 2 18 0 25 -3 6 -5 1 -5 -13z"/>
<path d="M1201 694 c0 -11 3 -14 6 -6 3 7 2 16 -1 19 -3 4 -6 -2 -5 -13z"/>
<path d="M1342 685 c0 -16 2 -22 5 -12 2 9 2 23 0 30 -3 6 -5 -1 -5 -18z"/>
<path d="M1401 703 c-1 -6 -4 -20 -7 -30 -5 -17 -5 -17 6 0 6 10 9 23 6 30 -3
9 -5 9 -5 0z"/>
<path d="M1476 684 c-4 -14 -5 -28 -3 -31 3 -2 8 8 11 23 4 14 5 28 3 31 -3 2
-8 -8 -11 -23z"/>
<path d="M1556 695 c-9 -26 -7 -32 5 -12 6 10 9 21 6 23 -2 3 -7 -2 -11 -11z"/>
<path d="M2046 697 c3 -10 9 -15 12 -12 3 3 0 11 -7 18 -10 9 -11 8 -5 -6z"/>
<path d="M2531 669 c-36 -42 -91 -125 -91 -137 0 -4 -14 -16 -31 -27 -34 -23
-63 -70 -55 -91 3 -7 -3 -18 -12 -23 -10 -6 -12 -11 -4 -11 10 0 10 -4 0 -22
-7 -13 -17 -26 -23 -30 -5 -4 -7 -8 -2 -8 4 0 1 -16 -8 -36 -8 -19 -14 -38
-14 -42 1 -4 1 -18 0 -32 -1 -19 -4 -21 -10 -11 -6 9 -16 11 -27 6 -18 -6 -17
-8 4 -16 25 -9 27 -33 9 -91 -10 -30 -14 -34 -25 -22 -10 11 -10 14 0 14 9 0
9 3 0 12 -18 18 -27 1 -14 -27 7 -14 12 -38 12 -53 0 -24 1 -23 20 13 11 21
23 55 26 74 12 68 34 143 45 157 13 16 31 80 31 112 0 12 4 22 9 22 5 0 9 11
9 24 0 14 14 38 35 59 19 19 35 37 35 40 0 12 64 107 71 107 5 0 9 6 9 13 0
18 35 49 44 40 4 -4 4 0 0 10 -3 9 -7 17 -8 16 0 0 -16 -18 -35 -40z"/>
<path d="M62 675 c0 -16 2 -22 5 -12 2 9 2 23 0 30 -3 6 -5 -1 -5 -18z"/>
<path d="M742 675 c0 -16 2 -22 5 -12 2 9 2 23 0 30 -3 6 -5 -1 -5 -18z"/>
<path d="M832 670 c0 -19 2 -27 5 -17 2 9 2 25 0 35 -3 9 -5 1 -5 -18z"/>
<path d="M1451 684 c0 -11 3 -14 6 -6 3 7 2 16 -1 19 -3 4 -6 -2 -5 -13z"/>
<path d="M1906 683 c-6 -14 -5 -15 5 -6 7 7 10 15 7 18 -3 3 -9 -2 -12 -12z"/>
<path d="M2136 683 c-6 -14 -5 -15 5 -6 7 7 10 15 7 18 -3 3 -9 -2 -12 -12z"/>
<path d="M2346 683 c-6 -14 -5 -15 5 -6 7 7 10 15 7 18 -3 3 -9 -2 -12 -12z"/>
<path d="M722 665 c0 -16 2 -22 5 -12 2 9 2 23 0 30 -3 6 -5 -1 -5 -18z"/>
<path d="M1181 674 c0 -11 3 -14 6 -6 3 7 2 16 -1 19 -3 4 -6 -2 -5 -13z"/>
<path d="M1422 670 c0 -14 2 -19 5 -12 2 6 2 18 0 25 -3 6 -5 1 -5 -13z"/>
<path d="M1501 678 c0 -9 -4 -25 -7 -35 -5 -17 -5 -17 6 0 6 10 9 25 7 35 -4
15 -5 15 -6 0z"/>
<path d="M2176 673 c-6 -14 -5 -15 5 -6 7 7 10 15 7 18 -3 3 -9 -2 -12 -12z"/>
<path d="M1002 660 c0 -14 2 -19 5 -12 2 6 2 18 0 25 -3 6 -5 1 -5 -13z"/>
<path d="M1665 669 c-4 -6 -5 -12 -2 -15 2 -3 7 2 10 11 7 17 1 20 -8 4z"/>
<path d="M1731 664 c0 -11 3 -14 6 -6 3 7 2 16 -1 19 -3 4 -6 -2 -5 -13z"/>
<path d="M1870 659 c-7 -11 -10 -23 -7 -25 2 -2 9 7 15 21 14 30 7 33 -8 4z"/>
<path d="M812 645 c0 -16 2 -22 5 -12 2 9 2 23 0 30 -3 6 -5 -1 -5 -18z"/>
<path d="M961 654 c0 -11 3 -14 6 -6 3 7 2 16 -1 19 -3 4 -6 -2 -5 -13z"/>
<path d="M1321 654 c0 -11 3 -14 6 -6 3 7 2 16 -1 19 -3 4 -6 -2 -5 -13z"/>
<path d="M1571 654 c0 -11 3 -14 6 -6 3 7 2 16 -1 19 -3 4 -6 -2 -5 -13z"/>
<path d="M1595 659 c-4 -6 -5 -12 -2 -15 2 -3 7 2 10 11 7 17 1 20 -8 4z"/>
<path d="M1916 655 c-3 -9 -6 -22 -5 -28 0 -7 5 -1 10 12 5 13 8 26 5 28 -2 2
-6 -3 -10 -12z"/>
<path d="M1966 655 c-9 -26 -7 -32 5 -12 6 10 9 21 6 23 -2 3 -7 -2 -11 -11z"/>
<path d="M2146 653 c-6 -14 -5 -15 5 -6 7 7 10 15 7 18 -3 3 -9 -2 -12 -12z"/>
<path d="M2283 653 c-3 -10 -8 -22 -11 -27 -3 -5 0 -6 6 -2 5 3 12 1 14 -6 3
-7 7 -5 11 6 5 11 3 15 -5 10 -7 -5 -9 0 -6 14 7 26 0 29 -9 5z"/>
<path d="M2605 639 c4 -19 11 -38 16 -43 5 -6 9 -21 9 -34 0 -13 4 -20 10 -17
11 7 3 53 -12 72 -5 7 -8 16 -5 20 3 4 -2 14 -10 22 -13 12 -14 10 -8 -20z"/>
<path d="M2076 645 c-9 -26 -7 -32 5 -12 6 10 9 21 6 23 -2 3 -7 -2 -11 -11z"/>
<path d="M2106 652 c-3 -5 1 -9 9 -9 8 0 12 4 9 9 -3 4 -7 8 -9 8 -2 0 -6 -4
-9 -8z"/>
<path d="M2551 643 c-1 -12 4 -25 9 -28 12 -7 12 2 0 30 -8 19 -9 19 -9 -2z"/>
<path d="M701 634 c0 -11 3 -14 6 -6 3 7 2 16 -1 19 -3 4 -6 -2 -5 -13z"/>
<path d="M791 634 c0 -11 3 -14 6 -6 3 7 2 16 -1 19 -3 4 -6 -2 -5 -13z"/>
<path d="M1885 640 c-3 -5 -1 -10 4 -10 6 0 11 5 11 10 0 6 -2 10 -4 10 -3 0
-8 -4 -11 -10z"/>
<path d="M2346 633 c-6 -14 -5 -15 5 -6 7 7 10 15 7 18 -3 3 -9 -2 -12 -12z"/>
<path d="M1130 629 c0 -5 5 -7 10 -4 6 3 10 8 10 11 0 2 -4 4 -10 4 -5 0 -10
-5 -10 -11z"/>
<path d="M62 610 c0 -14 2 -19 5 -12 2 6 2 18 0 25 -3 6 -5 1 -5 -13z"/>
<path d="M1033 615 c-19 -21 -16 -27 7 -13 11 7 20 16 20 20 0 12 -14 9 -27
-7z"/>
<path d="M1238 623 c7 -3 16 -2 19 1 4 3 -2 6 -13 5 -11 0 -14 -3 -6 -6z"/>
<path d="M1718 623 c7 -3 16 -2 19 1 4 3 -2 6 -13 5 -11 0 -14 -3 -6 -6z"/>
<path d="M1767 619 c16 -16 83 -24 83 -10 0 7 -4 9 -10 6 -5 -3 -26 -1 -47 4
-24 7 -33 7 -26 0z"/>
<path d="M2386 615 c-9 -26 -7 -32 5 -12 6 10 9 21 6 23 -2 3 -7 -2 -11 -11z"/>
<path d="M2415 619 c-4 -6 -5 -12 -2 -15 2 -3 7 2 10 11 7 17 1 20 -8 4z"/>
<path d="M2520 605 c0 -8 4 -15 10 -15 5 0 7 7 4 15 -4 8 -8 15 -10 15 -2 0
-4 -7 -4 -15z"/>
<path d="M2252 581 c-6 -17 -9 -31 -6 -31 7 0 25 52 20 57 -2 2 -8 -10 -14
-26z"/>
<path d="M2326 593 c-6 -14 -5 -15 5 -6 7 7 10 15 7 18 -3 3 -9 -2 -12 -12z"/>
<path d="M542 561 c8 -33 7 -45 -6 -66 -9 -13 -16 -28 -16 -32 0 -4 9 5 19 21
13 19 20 24 23 15 3 -8 3 -3 1 11 -8 54 -13 74 -22 83 -6 6 -5 -8 1 -32z"/>
<path d="M1051 586 c-8 -10 -9 -16 -1 -21 5 -3 10 1 10 9 0 20 29 21 36 1 4
-8 10 -13 15 -10 4 3 6 12 2 20 -7 19 -47 19 -62 1z"/>
<path d="M1150 590 c0 -5 5 -10 11 -10 5 0 7 -5 3 -12 -4 -7 -3 -8 4 -4 6 4 9
13 5 21 -6 17 -23 20 -23 5z"/>
<path d="M1195 593 c11 -3 23 -10 27 -16 4 -6 10 -8 13 -5 13 13 -6 28 -33 27
-21 -1 -23 -2 -7 -6z"/>
<path d="M1875 590 c3 -5 16 -10 28 -10 18 0 19 2 7 10 -20 13 -43 13 -35 0z"/>
<path d="M631 574 c0 -11 3 -14 6 -6 3 7 2 16 -1 19 -3 4 -6 -2 -5 -13z"/>
<path d="M1268 583 c12 -2 22 -12 22 -21 0 -14 2 -15 10 -2 11 17 -5 30 -35
28 -17 -1 -17 -1 3 -5z"/>
<path d="M1610 586 c0 -2 7 -6 15 -10 8 -3 15 -1 15 4 0 6 -7 10 -15 10 -8 0
-15 -2 -15 -4z"/>
<path d="M1650 580 c0 -5 5 -10 10 -10 6 0 10 5 10 10 0 6 -4 10 -10 10 -5 0
-10 -4 -10 -10z"/>
<path d="M1697 583 c19 -4 20 -7 11 -39 -5 -19 -7 -43 -5 -52 2 -9 7 4 11 31
5 26 12 47 17 47 5 0 9 5 9 10 0 6 -15 9 -32 9 -22 -1 -26 -3 -11 -6z"/>
<path d="M1330 571 c8 -6 18 -7 22 -5 4 3 8 -7 8 -22 0 -32 5 -29 14 9 6 25 4
27 -26 27 -24 0 -29 -3 -18 -9z"/>
<path d="M1413 573 c9 -2 17 -9 17 -14 0 -5 5 -9 10 -9 24 0 7 26 -17 27 -16
0 -20 -1 -10 -4z"/>
<path d="M1570 570 c19 -13 30 -13 30 0 0 6 -10 10 -22 10 -19 0 -20 -2 -8
-10z"/>
<path d="M1777 559 c4 -15 8 -17 19 -8 18 15 18 16 -5 22 -14 3 -17 0 -14 -14z"/>
<path d="M2530 571 c0 -17 12 -41 20 -41 10 0 1 38 -11 46 -5 3 -9 1 -9 -5z"/>
<path d="M2565 570 c3 -5 8 -10 11 -10 2 0 4 5 4 10 0 6 -5 10 -11 10 -5 0 -7
-4 -4 -10z"/>
<path d="M888 563 c-10 -2 -18 -9 -18 -14 0 -6 4 -8 9 -5 20 13 93 16 113 5
16 -9 19 -8 16 3 -5 13 -85 21 -120 11z"/>
<path d="M1468 563 c6 -2 18 -2 25 0 6 3 1 5 -13 5 -14 0 -19 -2 -12 -5z"/>
<path d="M1510 560 c0 -5 5 -10 10 -10 6 0 10 5 10 10 0 6 -4 10 -10 10 -5 0
-10 -4 -10 -10z"/>
<path d="M1823 555 c0 -10 4 -12 13 -4 8 7 13 6 17 -3 2 -7 8 -9 13 -5 5 4 2
12 -6 17 -22 14 -37 12 -37 -5z"/>
<path d="M2221 554 c0 -11 3 -14 6 -6 3 7 2 16 -1 19 -3 4 -6 -2 -5 -13z"/>
<path d="M693 543 c-13 -8 -23 -21 -23 -27 0 -7 3 -8 8 0 4 5 18 18 32 27 13
9 20 17 15 16 -6 0 -20 -7 -32 -16z"/>
<path d="M1641 543 c0 -12 -4 -30 -7 -40 -5 -17 -5 -17 6 0 6 10 9 28 7 40 -4
22 -4 22 -6 0z"/>
<path d="M1880 550 c0 -5 5 -10 11 -10 5 0 7 5 4 10 -3 6 -8 10 -11 10 -2 0
-4 -4 -4 -10z"/>
<path d="M2375 539 c-4 -12 -2 -26 4 -32 8 -8 11 -6 11 9 0 11 5 25 12 32 9 9
8 12 -4 12 -9 0 -20 -9 -23 -21z"/>
<path d="M820 540 c-13 -8 -13 -11 -1 -22 9 -8 12 -9 7 -1 -3 6 2 16 11 22 10
6 14 10 8 11 -5 0 -17 -5 -25 -10z"/>
<path d="M1224 536 c-3 -8 -4 -23 -2 -33 3 -11 6 -6 9 15 6 34 2 42 -7 18z"/>
<path d="M1918 544 c-5 -4 -8 -14 -8 -23 1 -14 2 -13 11 2 5 9 21 17 35 17 23
0 25 -3 19 -32 l-6 -33 16 34 c11 25 19 31 26 24 7 -7 18 -9 25 -6 11 4 8 -13
-10 -63 -14 -38 -27 -87 -30 -109 -7 -47 -1 -32 35 85 12 41 27 78 32 81 5 4
5 9 -2 13 -16 10 -135 19 -143 10z"/>
<path d="M2586 503 c8 -25 17 -49 21 -52 3 -3 3 2 0 11 -3 9 -9 33 -13 52 -3
20 -10 36 -14 36 -4 0 -2 -21 6 -47z"/>
<path d="M757 533 c-10 -9 -9 -23 1 -23 5 0 9 7 9 15 0 17 -1 18 -10 8z"/>
<path d="M1431 524 c0 -11 3 -14 6 -6 3 7 2 16 -1 19 -3 4 -6 -2 -5 -13z"/>
<path d="M2266 528 c3 -5 10 -6 15 -3 13 9 11 12 -6 12 -8 0 -12 -4 -9 -9z"/>
<path d="M2490 536 c0 -2 8 -10 18 -17 15 -13 16 -12 3 4 -13 16 -21 21 -21
13z"/>
<path d="M2648 535 c-6 -6 14 -70 24 -81 4 -3 2 14 -3 37 -11 47 -13 52 -21
44z"/>
<path d="M1502 505 c0 -16 2 -22 5 -12 2 9 2 23 0 30 -3 6 -5 -1 -5 -18z"/>
<path d="M1835 500 c-4 -17 -5 -34 -2 -36 2 -3 7 10 11 27 8 42 0 50 -9 9z"/>
<path d="M2088 522 c7 -5 10 -17 7 -28 -6 -18 -6 -17 6 1 6 11 13 22 15 23 1
2 12 1 24 -3 15 -5 18 -10 11 -18 -22 -27 -51 -122 -57 -185 -3 -37 -7 -78
-10 -91 -8 -58 -16 -225 -9 -219 4 3 9 33 11 65 17 258 40 380 79 423 14 15
13 18 -10 28 -30 14 -88 16 -67 4z"/>
<path d="M705 500 c-16 -17 -16 -20 -2 -20 8 0 17 -3 20 -7 2 -5 2 -2 0 6 -2
7 2 20 8 27 18 22 -6 16 -26 -6z"/>
<path d="M1762 478 c-14 -58 -25 -134 -19 -128 7 7 38 162 33 167 -2 2 -8 -16
-14 -39z"/>
<path d="M2556 490 c3 -19 10 -39 15 -44 13 -14 10 2 -7 44 l-14 35 6 -35z"/>
<path d="M86 497 c3 -10 9 -15 12 -12 3 3 0 11 -7 18 -10 9 -11 8 -5 -6z"/>
<path d="M875 500 c-3 -5 -1 -10 4 -10 6 0 11 5 11 10 0 6 -2 10 -4 10 -3 0
-8 -4 -11 -10z"/>
<path d="M2251 484 c0 -11 3 -14 6 -6 3 7 2 16 -1 19 -3 4 -6 -2 -5 -13z"/>
<path d="M2510 485 c0 -8 4 -15 10 -15 5 0 7 7 4 15 -4 8 -8 15 -10 15 -2 0
-4 -7 -4 -15z"/>
<path d="M761 480 c0 -8 4 -22 9 -30 12 -18 12 -2 0 25 -6 13 -9 15 -9 5z"/>
<path d="M1892 453 c-20 -73 -24 -103 -12 -103 6 0 9 4 6 8 -3 5 2 35 10 66
17 64 14 88 -4 29z"/>
<path d="M2192 480 c2 -9 -12 -45 -30 -80 -35 -71 -40 -102 -42 -259 -2 -140
-1 -141 9 -141 6 0 10 49 10 111 -1 61 2 113 5 117 3 3 7 -12 7 -34 1 -21 2
-43 4 -49 1 -5 3 -40 3 -77 1 -40 6 -68 13 -68 7 0 8 29 4 89 l-7 88 48 62
c26 33 51 61 56 61 5 0 7 4 3 9 -3 5 -1 12 5 16 5 3 15 16 22 28 23 44 -19 -2
-79 -85 l-58 -81 -3 42 c-3 35 3 52 33 96 19 30 42 61 51 69 8 9 12 16 7 16
-13 0 -86 -98 -100 -134 l-11 -31 -1 38 c-1 37 35 124 67 160 14 16 14 19 -2
35 -15 14 -17 15 -14 2z"/>
<path d="M2455 480 c-3 -5 -2 -10 3 -10 5 0 12 -11 14 -25 3 -14 1 -25 -6 -25
-6 0 -5 -4 3 -9 8 -5 12 -18 8 -30 -3 -12 -1 -21 3 -21 5 0 11 -8 14 -17 2
-10 3 2 1 27 -7 90 -24 136 -40 110z"/>
<path d="M656 465 c-10 -8 -24 -16 -30 -18 -7 -3 -5 -11 6 -22 16 -17 17 -17
11 6 l-7 24 28 -18 c27 -18 27 -18 16 2 -6 12 -8 26 -5 31 8 13 4 12 -19 -5z"/>
<path d="M1161 454 c0 -11 3 -14 6 -6 3 7 2 16 -1 19 -3 4 -6 -2 -5 -13z"/>
<path d="M1683 422 c-7 -39 -7 -52 1 -49 6 2 10 12 8 21 -2 10 1 23 6 29 5 7
6 21 2 31 -5 15 -9 6 -17 -32z"/>
<path d="M1956 444 c-4 -14 -5 -29 -2 -31 3 -3 8 7 12 21 3 15 4 29 1 32 -2 3
-8 -7 -11 -22z"/>
<path d="M2076 455 c-3 -9 -6 -22 -5 -28 0 -7 5 -1 10 12 5 13 8 26 5 28 -2 2
-6 -3 -10 -12z"/>
<path d="M61 444 c0 -11 3 -14 6 -6 3 7 2 16 -1 19 -3 4 -6 -2 -5 -13z"/>
<path d="M1221 444 c0 -11 3 -14 6 -6 3 7 2 16 -1 19 -3 4 -6 -2 -5 -13z"/>
<path d="M1422 430 c0 -19 2 -27 5 -17 2 9 2 25 0 35 -3 9 -5 1 -5 -18z"/>
<path d="M1619 432 c-3 -20 -2 -29 4 -23 5 5 7 19 5 32 -3 20 -5 19 -9 -9z"/>
<path d="M2517 447 c-3 -7 1 -21 9 -32 12 -17 14 -17 14 -2 0 9 -4 17 -10 17
-5 0 -7 7 -4 15 4 8 4 15 1 15 -3 0 -7 -6 -10 -13z"/>
<path d="M500 430 c-6 -11 -8 -20 -6 -20 3 0 10 9 16 20 6 11 8 20 6 20 -3 0
-10 -9 -16 -20z"/>
<path d="M731 434 c0 -11 3 -14 6 -6 3 7 2 16 -1 19 -3 4 -6 -2 -5 -13z"/>
<path d="M1561 434 c0 -11 3 -14 6 -6 3 7 2 16 -1 19 -3 4 -6 -2 -5 -13z"/>
<path d="M1821 434 c0 -11 3 -14 6 -6 3 7 2 16 -1 19 -3 4 -6 -2 -5 -13z"/>
<path d="M2237 443 c-10 -9 -9 -23 1 -23 5 0 9 7 9 15 0 17 -1 18 -10 8z"/>
<path d="M561 428 c0 -10 -15 -45 -32 -78 -17 -34 -29 -63 -27 -66 3 -2 17 23
33 56 20 42 31 56 38 48 7 -10 10 -10 14 0 2 6 10 12 16 12 14 -1 68 -72 98
-129 11 -23 23 -41 25 -41 8 0 -25 71 -48 103 -13 18 -23 34 -23 37 0 3 -3 4
-8 2 -4 -1 -12 9 -17 22 -11 31 -26 40 -34 21 -8 -22 -24 -18 -29 8 -3 14 -5
16 -6 5z"/>
<path d="M880 431 c0 -6 4 -13 10 -16 6 -3 7 1 4 9 -7 18 -14 21 -14 7z"/>
<path d="M2600 433 c0 -5 5 -15 10 -23 8 -12 10 -11 10 8 0 12 -4 22 -10 22
-5 0 -10 -3 -10 -7z"/>
<path d="M2630 436 c0 -2 7 -9 15 -16 13 -11 14 -10 9 4 -5 14 -24 23 -24 12z"/>
<path d="M2681 410 c15 -45 24 -54 15 -15 -4 17 -12 34 -17 40 -5 5 -4 -6 2
-25z"/>
<path d="M1161 414 c0 -11 3 -14 6 -6 3 7 2 16 -1 19 -3 4 -6 -2 -5 -13z"/>
<path d="M1489 402 c-3 -20 -2 -29 4 -23 5 5 7 19 5 32 -3 20 -5 19 -9 -9z"/>
<path d="M2573 410 c3 -14 9 -42 12 -63 4 -20 11 -39 15 -42 8 -5 -18 117 -27
125 -3 3 -3 -6 0 -20z"/>
<path d="M694 409 c-3 -6 2 -18 12 -27 17 -16 17 -16 5 0 -7 9 -10 22 -6 28 3
5 4 10 1 10 -3 0 -8 -5 -12 -11z"/>
<path d="M2434 366 c2 -31 6 -59 9 -63 11 -10 8 -25 -3 -18 -5 3 -10 -1 -10
-10 0 -9 5 -13 10 -10 6 3 10 1 10 -5 0 -6 5 -8 10 -5 6 4 8 9 6 13 -2 4 -7
36 -10 72 -8 82 -25 102 -22 26z"/>
<path d="M742 385 c0 -16 2 -22 5 -12 2 9 2 23 0 30 -3 6 -5 -1 -5 -18z"/>
<path d="M1352 390 c0 -14 2 -19 5 -12 2 6 2 18 0 25 -3 6 -5 1 -5 -13z"/>
<path d="M1805 374 c-3 -20 -4 -39 -1 -42 3 -3 6 5 6 17 0 12 4 20 9 17 4 -3
6 6 3 19 -6 33 -9 32 -17 -11z"/>
<path d="M1935 364 c-3 -22 -10 -49 -15 -61 -6 -14 -6 -23 0 -23 10 0 35 109
27 117 -3 3 -9 -12 -12 -33z"/>
<path d="M2646 385 c4 -8 10 -15 15 -15 4 0 6 7 3 15 -4 8 -10 15 -15 15 -4 0
-6 -7 -3 -15z"/>
<path d="M475 380 c-3 -6 1 -7 9 -4 18 7 21 14 7 14 -6 0 -13 -4 -16 -10z"/>
<path d="M1612 370 c0 -14 2 -19 5 -12 2 6 2 18 0 25 -3 6 -5 1 -5 -13z"/>
<path d="M2520 380 c0 -5 5 -10 10 -10 6 0 10 -12 11 -27 0 -16 4 -37 9 -48 7
-14 8 -7 6 26 -2 25 -6 51 -10 57 -9 15 -26 16 -26 2z"/>
<path d="M777 367 c-3 -8 -1 -20 4 -28 6 -10 9 -7 9 14 0 29 -5 35 -13 14z"/>
<path d="M1162 354 c-1 -13 0 -24 2 -24 7 0 14 40 7 44 -4 3 -8 -6 -9 -20z"/>
<path d="M2627 313 c8 -38 15 -76 16 -85 1 -10 5 -18 10 -18 5 0 6 8 4 18 -3
9 -11 47 -17 85 -7 37 -16 67 -20 67 -4 0 -1 -30 7 -67z"/>
<path d="M580 347 c0 -7 16 -25 35 -41 19 -16 35 -35 35 -42 0 -7 9 -22 20
-32 11 -10 34 -43 51 -73 l30 -54 -4 47 c-3 31 -1 45 6 41 6 -3 7 -1 3 5 -12
20 -29 13 -23 -9 9 -34 -18 -5 -39 43 -10 24 -25 47 -33 52 -8 5 -30 24 -48
42 -18 18 -33 28 -33 21z"/>
<path d="M90 341 c0 -6 4 -13 10 -16 6 -3 7 1 4 9 -7 18 -14 21 -14 7z"/>
<path d="M465 340 c3 -5 8 -10 11 -10 2 0 4 5 4 10 0 6 -5 10 -11 10 -5 0 -7
-4 -4 -10z"/>
<path d="M745 340 c-3 -5 -1 -10 4 -10 6 0 11 5 11 10 0 6 -2 10 -4 10 -3 0
-8 -4 -11 -10z"/>
<path d="M886 337 c3 -10 9 -15 12 -12 3 3 0 11 -7 18 -10 9 -11 8 -5 -6z"/>
<path d="M991 334 c0 -11 3 -14 6 -6 3 7 2 16 -1 19 -3 4 -6 -2 -5 -13z"/>
<path d="M1100 335 c0 -8 2 -15 4 -15 2 0 6 7 10 15 3 8 1 15 -4 15 -6 0 -10
-7 -10 -15z"/>
<path d="M1207 339 c7 -7 15 -10 18 -7 3 3 -2 9 -12 12 -14 6 -15 5 -6 -5z"/>
<path d="M1482 320 c0 -19 2 -27 5 -17 2 9 2 25 0 35 -3 9 -5 1 -5 -18z"/>
<path d="M1671 334 c0 -11 3 -14 6 -6 3 7 2 16 -1 19 -3 4 -6 -2 -5 -13z"/>
<path d="M2042 330 c0 -14 2 -19 5 -12 2 6 2 18 0 25 -3 6 -5 1 -5 -13z"/>
<path d="M2660 326 c0 -22 3 -27 11 -19 8 8 8 16 0 30 -9 16 -10 14 -11 -11z"/>
<path d="M1542 315 c0 -16 2 -22 5 -12 2 9 2 23 0 30 -3 6 -5 -1 -5 -18z"/>
<path d="M1727 303 c-9 -51 -2 -53 11 -3 5 22 6 40 2 40 -4 0 -10 -17 -13 -37z"/>
<path d="M2700 330 c0 -5 5 -10 11 -10 5 0 7 5 4 10 -3 6 -8 10 -11 10 -2 0
-4 -4 -4 -10z"/>
<path d="M935 320 c-3 -5 -1 -10 4 -10 6 0 11 5 11 10 0 6 -2 10 -4 10 -3 0
-8 -4 -11 -10z"/>
<path d="M1861 314 c0 -11 3 -14 6 -6 3 7 2 16 -1 19 -3 4 -6 -2 -5 -13z"/>
<path d="M741 290 c15 -45 24 -54 15 -15 -4 17 -12 34 -17 40 -5 5 -4 -6 2
-25z"/>
<path d="M1040 309 c0 -5 5 -7 10 -4 6 3 10 8 10 11 0 2 -4 4 -10 4 -5 0 -10
-5 -10 -11z"/>
<path d="M1161 304 c0 -11 3 -14 6 -6 3 7 2 16 -1 19 -3 4 -6 -2 -5 -13z"/>
<path d="M1791 304 c0 -11 3 -14 6 -6 3 7 2 16 -1 19 -3 4 -6 -2 -5 -13z"/>
<path d="M2487 313 c-12 -12 -7 -22 8 -17 8 4 15 10 15 15 0 11 -14 12 -23 2z"/>
<path d="M86 297 c3 -10 9 -15 12 -12 3 3 0 11 -7 18 -10 9 -11 8 -5 -6z"/>
<path d="M1281 294 c0 -11 3 -14 6 -6 3 7 2 16 -1 19 -3 4 -6 -2 -5 -13z"/>
<path d="M1419 298 c0 -7 -2 -23 -5 -35 -2 -13 0 -23 5 -23 5 0 9 16 9 35 0
32 -7 51 -9 23z"/>
<path d="M1602 290 c0 -14 2 -19 5 -12 2 6 2 18 0 25 -3 6 -5 1 -5 -13z"/>
<path d="M1656 263 c-8 -63 -1 -65 11 -3 6 27 7 50 3 50 -4 0 -10 -21 -14 -47z"/>
<path d="M1975 263 c-3 -27 -9 -59 -12 -73 -3 -14 -3 -23 0 -20 10 9 34 140
26 140 -4 0 -10 -21 -14 -47z"/>
<path d="M580 285 c0 -8 4 -15 10 -15 5 0 7 7 4 15 -4 8 -8 15 -10 15 -2 0 -4
-7 -4 -15z"/>
<path d="M2034 286 c-3 -8 -4 -29 -2 -48 3 -29 4 -27 8 15 5 48 3 58 -6 33z"/>
<path d="M1352 270 c0 -14 2 -19 5 -12 2 6 2 18 0 25 -3 6 -5 1 -5 -13z"/>
<path d="M1850 278 c0 -7 -3 -31 -7 -53 -3 -22 -3 -37 1 -33 9 8 20 98 12 98
-3 0 -6 -6 -6 -12z"/>
<path d="M2666 281 c-4 -5 -2 -12 3 -15 5 -4 12 -2 15 3 4 5 2 12 -3 15 -5 4
-12 2 -15 -3z"/>
<path d="M1786 268 c-8 -24 -15 -73 -10 -60 3 6 9 10 12 8 4 -2 7 11 8 30 1
35 -4 44 -10 22z"/>
<path d="M88 258 c-2 -7 -2 -26 2 -43 l6 -30 6 28 c3 15 1 27 -3 27 -5 0 -6 7
-3 15 4 8 4 15 1 15 -3 0 -7 -6 -9 -12z"/>
<path d="M1096 253 c-6 -14 -5 -15 5 -6 7 7 10 15 7 18 -3 3 -9 -2 -12 -12z"/>
<path d="M1221 254 c0 -11 3 -14 6 -6 3 7 2 16 -1 19 -3 4 -6 -2 -5 -13z"/>
<path d="M1276 253 c-6 -14 -5 -15 5 -6 7 7 10 15 7 18 -3 3 -9 -2 -12 -12z"/>
<path d="M1910 251 c0 -11 -3 -28 -6 -38 -5 -12 -4 -15 3 -8 15 15 25 65 13
65 -5 0 -10 -9 -10 -19z"/>
<path d="M2392 234 c2 -24 -3 -40 -13 -47 -9 -7 -14 -18 -11 -25 3 -10 8 -8
18 5 13 17 14 16 13 -7 -4 -48 1 -80 12 -80 5 0 8 4 5 8 -2 4 -6 47 -7 95 -2
48 -7 87 -12 87 -5 0 -7 -16 -5 -36z"/>
<path d="M2558 265 c-7 -7 2 -54 11 -59 4 -3 5 11 3 30 -4 35 -5 37 -14 29z"/>
<path d="M2600 260 c0 -5 5 -10 11 -10 5 0 7 5 4 10 -3 6 -8 10 -11 10 -2 0
-4 -4 -4 -10z"/>
<path d="M467 241 c-4 -17 -3 -21 5 -13 5 5 8 16 6 23 -3 8 -7 3 -11 -10z"/>
<path d="M555 223 c-9 -20 -14 -41 -12 -47 2 -6 11 11 20 37 19 56 14 63 -8
10z"/>
<path d="M595 243 c4 -10 9 -35 12 -56 3 -21 8 -35 11 -33 8 9 32 -22 32 -41
0 -20 19 -54 21 -38 0 6 2 20 3 32 2 13 -2 19 -7 16 -6 -4 -8 1 -4 11 4 10 3
15 -3 11 -11 -7 -49 69 -50 98 0 9 -5 17 -11 17 -7 0 -8 -7 -4 -17z"/>
<path d="M1470 249 c0 -5 5 -7 10 -4 6 3 10 8 10 11 0 2 -4 4 -10 4 -5 0 -10
-5 -10 -11z"/>
<path d="M1535 249 c-4 -6 -5 -12 -2 -15 2 -3 7 2 10 11 7 17 1 20 -8 4z"/>
<path d="M1597 253 c-4 -3 -7 -24 -7 -46 0 -51 9 -44 13 11 4 45 4 45 -6 35z"/>
<path d="M2500 246 c0 -9 5 -16 10 -16 6 0 10 4 10 9 0 6 -4 13 -10 16 -5 3
-10 -1 -10 -9z"/>
<path d="M2723 240 c4 -14 7 -35 7 -47 0 -13 4 -23 9 -23 9 0 -5 80 -16 90 -3
3 -3 -6 0 -20z"/>
<path d="M1715 238 c-5 -15 -25 -128 -25 -140 0 -5 4 -7 8 -4 4 2 9 22 10 43
2 21 7 55 11 75 8 36 5 53 -4 26z"/>
<path d="M2427 230 c-3 -11 0 -23 5 -27 6 -3 8 -1 4 5 -3 6 -2 13 4 17 10 6
14 -12 10 -55 -3 -39 9 -19 13 23 3 29 0 40 -13 47 -14 7 -19 5 -23 -10z"/>
<path d="M2674 228 c3 -13 5 -29 5 -36 1 -7 6 -10 11 -7 7 4 7 11 2 18 -5 7
-8 20 -7 30 2 9 -1 17 -6 17 -5 0 -7 -10 -5 -22z"/>
<path d="M836 225 c-3 -8 -1 -15 4 -15 6 0 10 7 10 15 0 8 -2 15 -4 15 -2 0
-6 -7 -10 -15z"/>
<path d="M1350 216 c0 -31 6 -34 13 -6 3 11 1 23 -4 26 -5 3 -9 -6 -9 -20z"/>
<path d="M2612 220 c0 -14 2 -19 5 -12 2 6 2 18 0 25 -3 6 -5 1 -5 -13z"/>
<path d="M1100 194 c0 -8 5 -12 10 -9 6 4 8 11 5 16 -9 14 -15 11 -15 -7z"/>
<path d="M1293 165 c0 -27 2 -38 4 -22 2 15 2 37 0 50 -2 12 -4 0 -4 -28z"/>
<path d="M61 184 c0 -11 3 -14 6 -6 3 7 2 16 -1 19 -3 4 -6 -2 -5 -13z"/>
<path d="M1530 200 c-8 -26 -7 -41 2 -32 6 6 8 16 5 24 -3 7 -6 11 -7 8z"/>
<path d="M1646 191 c-4 -7 -5 -15 -2 -18 9 -9 19 4 14 18 -4 11 -6 11 -12 0z"/>
<path d="M2025 189 c-4 -6 -5 -12 -2 -15 2 -3 7 2 10 11 7 17 1 20 -8 4z"/>
<path d="M2510 186 c0 -8 4 -17 8 -20 4 -2 8 4 8 15 0 10 -4 19 -8 19 -4 0 -8
-6 -8 -14z"/>
<path d="M2650 180 c0 -11 4 -20 9 -20 5 0 7 9 4 20 -3 11 -7 20 -9 20 -2 0
-4 -9 -4 -20z"/>
<path d="M1470 175 c0 -8 2 -15 4 -15 2 0 6 7 10 15 3 8 1 15 -4 15 -6 0 -10
-7 -10 -15z"/>
<path d="M1770 179 c0 -5 5 -7 10 -4 6 3 10 8 10 11 0 2 -4 4 -10 4 -5 0 -10
-5 -10 -11z"/>
<path d="M1893 128 c-5 -35 -8 -65 -6 -67 7 -10 12 8 17 51 2 26 7 51 10 57 4
5 2 12 -3 15 -5 4 -13 -22 -18 -56z"/>
<path d="M2570 167 c0 -15 4 -27 8 -27 10 0 9 36 -1 46 -4 4 -7 -5 -7 -19z"/>
<path d="M1350 170 c0 -5 5 -10 11 -10 5 0 7 5 4 10 -3 6 -8 10 -11 10 -2 0
-4 -4 -4 -10z"/>
<path d="M1836 168 c-12 -37 -13 -59 -5 -64 8 -5 14 26 10 50 -1 5 4 13 11 17
10 7 10 9 0 9 -7 0 -14 -6 -16 -12z"/>
<path d="M2233 173 c-7 -3 -13 -11 -13 -18 0 -8 -10 -21 -22 -29 -12 -9 -17
-16 -11 -16 7 0 15 5 18 10 4 6 11 7 17 4 7 -4 8 -2 4 4 -4 7 -3 12 2 12 9 0
26 30 20 35 -2 1 -9 0 -15 -2z"/>
<path d="M1095 160 c-3 -5 1 -10 10 -10 9 0 13 5 10 10 -3 6 -8 10 -10 10 -2
0 -7 -4 -10 -10z"/>
<path d="M1414 151 c0 -11 4 -17 8 -15 4 3 8 12 8 20 0 8 -4 14 -8 14 -4 0 -8
-9 -8 -19z"/>
<path d="M2687 123 c7 -70 10 -74 14 -20 3 29 0 52 -7 58 -9 7 -10 -3 -7 -38z"/>
<path d="M60 155 c-3 -5 -3 -41 0 -80 4 -59 6 -64 10 -30 6 44 -2 126 -10 110z"/>
<path d="M990 140 c-6 -11 -8 -20 -6 -20 3 0 10 9 16 20 6 11 8 20 6 20 -3 0
-10 -9 -16 -20z"/>
<path d="M1220 149 c0 -5 5 -7 10 -4 6 3 10 8 10 11 0 2 -4 4 -10 4 -5 0 -10
-5 -10 -11z"/>
<path d="M1586 143 c-6 -14 -5 -15 5 -6 7 7 10 15 7 18 -3 3 -9 -2 -12 -12z"/>
<path d="M1764 146 c-3 -8 -4 -23 -2 -33 3 -11 6 -6 9 15 6 34 2 42 -7 18z"/>
<path d="M1955 129 c-11 -51 -13 -79 -4 -79 5 0 9 3 10 8 0 4 2 28 5 55 5 53
-1 63 -11 16z"/>
<path d="M2016 118 c-11 -86 -12 -118 -4 -118 4 0 9 17 9 38 2 49 7 92 13 109
3 7 1 13 -4 13 -5 0 -11 -19 -14 -42z"/>
<path d="M2621 133 c-1 -17 4 -35 9 -38 12 -7 12 22 0 50 -7 17 -9 15 -9 -12z"/>
<path d="M477 143 c-4 -3 -7 -11 -7 -17 0 -6 5 -5 12 2 6 6 9 14 7 17 -3 3 -9
2 -12 -2z"/>
<path d="M1349 137 c-14 -10 -14 -14 -3 -25 18 -16 29 -15 15 1 -8 10 -7 17 1
25 16 16 8 15 -13 -1z"/>
<path d="M2520 123 c0 -21 3 -24 9 -14 5 8 7 20 4 28 -8 21 -13 15 -13 -14z"/>
<path d="M2655 140 c3 -5 8 -10 11 -10 2 0 4 5 4 10 0 6 -5 10 -11 10 -5 0 -7
-4 -4 -10z"/>
<path d="M601 124 c0 -11 3 -14 6 -6 3 7 2 16 -1 19 -3 4 -6 -2 -5 -13z"/>
<path d="M785 130 c-3 -6 1 -7 9 -4 18 7 21 14 7 14 -6 0 -13 -4 -16 -10z"/>
<path d="M1045 130 c3 -5 8 -10 11 -10 2 0 4 5 4 10 0 6 -5 10 -11 10 -5 0 -7
-4 -4 -10z"/>
<path d="M1523 105 c0 -22 2 -30 4 -17 2 12 2 30 0 40 -3 9 -5 -1 -4 -23z"/>
<path d="M1637 121 c-2 -10 -1 -24 3 -30 4 -7 7 1 8 18 1 35 -3 40 -11 12z"/>
<path d="M2446 132 c-2 -4 4 -8 14 -8 10 0 16 4 14 8 -3 4 -9 8 -14 8 -5 0
-11 -4 -14 -8z"/>
<path d="M2744 124 c3 -9 6 -22 6 -30 0 -8 4 -14 8 -14 5 0 7 13 4 30 -2 16
-9 30 -14 30 -6 0 -7 -7 -4 -16z"/>
<path d="M836 118 c3 -4 9 -8 15 -8 5 0 9 4 9 8 0 5 -7 9 -15 9 -8 0 -12 -4
-9 -9z"/>
<path d="M2582 108 c3 -15 0 -29 -6 -32 -7 -3 -7 -5 2 -5 6 -1 12 -14 12 -30
0 -17 5 -33 12 -37 6 -4 9 -3 6 2 -3 5 -9 34 -12 63 -4 30 -9 57 -13 60 -3 4
-4 -6 -1 -21z"/>
<path d="M95 110 c3 -5 8 -10 11 -10 2 0 4 5 4 10 0 6 -5 10 -11 10 -5 0 -7
-4 -4 -10z"/>
<path d="M935 110 c3 -5 8 -10 11 -10 2 0 4 5 4 10 0 6 -5 10 -11 10 -5 0 -7
-4 -4 -10z"/>
<path d="M1410 110 c0 -5 5 -10 10 -10 6 0 10 5 10 10 0 6 -4 10 -10 10 -5 0
-10 -4 -10 -10z"/>
<path d="M1580 101 c0 -11 -6 -22 -12 -24 -8 -3 -6 -6 5 -6 12 -1 17 7 17 24
0 14 -2 25 -5 25 -3 0 -5 -9 -5 -19z"/>
<path d="M2333 60 c0 -36 2 -50 4 -32 2 17 2 47 0 65 -2 17 -4 3 -4 -33z"/>
<path d="M2660 99 c0 -11 4 -18 10 -14 5 3 7 12 3 20 -7 21 -13 19 -13 -6z"/>
<path d="M800 95 c0 -8 4 -15 10 -15 5 0 7 7 4 15 -4 8 -8 15 -10 15 -2 0 -4
-7 -4 -15z"/>
<path d="M885 100 c3 -5 8 -10 11 -10 2 0 4 5 4 10 0 6 -5 10 -11 10 -5 0 -7
-4 -4 -10z"/>
<path d="M1045 100 c3 -5 8 -10 11 -10 2 0 4 5 4 10 0 6 -5 10 -11 10 -5 0 -7
-4 -4 -10z"/>
<path d="M1290 100 c0 -5 5 -10 11 -10 5 0 7 5 4 10 -3 6 -8 10 -11 10 -2 0
-4 -4 -4 -10z"/>
<path d="M2460 79 c0 -16 4 -28 9 -25 8 5 3 56 -5 56 -2 0 -4 -14 -4 -31z"/>
<path d="M425 89 c-4 -6 -5 -12 -2 -15 2 -3 7 2 10 11 7 17 1 20 -8 4z"/>
<path d="M1095 90 c-3 -6 1 -7 9 -4 18 7 21 14 7 14 -6 0 -13 -4 -16 -10z"/>
<path d="M2351 84 c0 -11 3 -14 6 -6 3 7 2 16 -1 19 -3 4 -6 -2 -5 -13z"/>
<path d="M101 74 c0 -11 3 -14 6 -6 3 7 2 16 -1 19 -3 4 -6 -2 -5 -13z"/>
<path d="M471 74 c0 -11 3 -14 6 -6 3 7 2 16 -1 19 -3 4 -6 -2 -5 -13z"/>
<path d="M689 88 c0 -2 -3 -17 -5 -34 -4 -23 0 -33 12 -38 9 -4 19 -4 21 -2 8
7 -8 27 -16 21 -5 -2 -7 9 -6 25 2 24 -1 40 -6 28z"/>
<path d="M750 84 c0 -24 22 -84 30 -84 6 0 2 19 -7 43 -18 46 -23 55 -23 41z"/>
<path d="M843 73 c2 -12 6 -26 10 -29 11 -11 8 19 -3 36 -8 12 -9 10 -7 -7z"/>
<path d="M990 79 c0 -5 5 -7 10 -4 6 3 10 8 10 11 0 2 -4 4 -10 4 -5 0 -10 -5
-10 -11z"/>
<path d="M510 60 c6 -11 13 -20 16 -20 2 0 0 9 -6 20 -6 11 -13 20 -16 20 -2
0 0 -9 6 -20z"/>
<path d="M1362 55 c0 -16 2 -22 5 -12 2 9 2 23 0 30 -3 6 -5 -1 -5 -18z"/>
<path d="M1616 72 c-3 -4 4 -9 15 -9 23 -2 25 3 4 10 -8 4 -16 3 -19 -1z"/>
<path d="M1820 55 c0 -32 6 -32 12 0 3 14 1 25 -3 25 -5 0 -9 -11 -9 -25z"/>
<path d="M2625 70 c3 -5 11 -10 16 -10 6 0 7 5 4 10 -3 6 -11 10 -16 10 -6 0
-7 -4 -4 -10z"/>
<path d="M581 54 c0 -11 3 -14 6 -6 3 7 2 16 -1 19 -3 4 -6 -2 -5 -13z"/>
<path d="M800 60 c0 -5 5 -10 11 -10 5 0 7 5 4 10 -3 6 -8 10 -11 10 -2 0 -4
-4 -4 -10z"/>
<path d="M1110 55 c0 -8 2 -15 4 -15 2 0 6 7 10 15 3 8 1 15 -4 15 -6 0 -10
-7 -10 -15z"/>
<path d="M1295 60 c-3 -5 -1 -10 4 -10 6 0 11 5 11 10 0 6 -2 10 -4 10 -3 0
-8 -4 -11 -10z"/>
<path d="M1750 54 c0 -8 5 -12 10 -9 6 4 8 11 5 16 -9 14 -15 11 -15 -7z"/>
<path d="M2402 50 c0 -14 2 -19 5 -12 2 6 2 18 0 25 -3 6 -5 1 -5 -13z"/>
<path d="M2667 38 c7 -46 13 -48 13 -5 0 21 -4 37 -9 37 -5 0 -7 -15 -4 -32z"/>
<path d="M2757 38 c8 -44 13 -48 13 -10 0 17 -4 34 -10 37 -6 4 -7 -6 -3 -27z"/>
<path d="M646 34 c-4 -14 -5 -28 -3 -31 3 -2 8 8 11 23 4 14 5 28 3 31 -3 2
-8 -8 -11 -23z"/>
<path d="M1411 44 c0 -11 3 -14 6 -6 3 7 2 16 -1 19 -3 4 -6 -2 -5 -13z"/>
<path d="M1461 44 c0 -11 3 -14 6 -6 3 7 2 16 -1 19 -3 4 -6 -2 -5 -13z"/>
<path d="M1515 51 c-3 -5 -1 -12 5 -16 5 -3 10 1 10 9 0 18 -6 21 -15 7z"/>
<path d="M1582 40 c0 -14 2 -19 5 -12 2 6 2 18 0 25 -3 6 -5 1 -5 -13z"/>
<path d="M2205 41 c-3 -5 -1 -12 5 -16 5 -3 10 1 10 9 0 18 -6 21 -15 7z"/>
<path d="M460 18 c0 -12 3 -18 7 -14 11 10 12 36 2 36 -5 0 -9 -10 -9 -22z"/>
<path d="M810 35 c0 -15 18 -40 24 -34 3 3 -1 14 -9 25 -8 10 -14 15 -15 9z"/>
<path d="M1295 30 c3 -5 8 -10 11 -10 2 0 4 5 4 10 0 6 -5 10 -11 10 -5 0 -7
-4 -4 -10z"/>
<path d="M895 20 c-3 -5 -1 -10 4 -10 6 0 11 5 11 10 0 6 -2 10 -4 10 -3 0 -8
-4 -11 -10z"/>
<path d="M1631 14 c0 -11 3 -14 6 -6 3 7 2 16 -1 19 -3 4 -6 -2 -5 -13z"/>
<path d="M1746 15 c-3 -8 -1 -15 4 -15 6 0 10 7 10 15 0 19 -6 19 -14 0z"/>
<path d="M1810 10 c0 -5 5 -10 10 -10 6 0 10 5 10 10 0 6 -4 10 -10 10 -5 0
-10 -4 -10 -10z"/>
<path d="M1880 10 c0 -5 5 -10 11 -10 5 0 7 5 4 10 -3 6 -8 10 -11 10 -2 0 -4
-4 -4 -10z"/>
<path d="M1940 10 c0 -5 5 -10 11 -10 5 0 7 5 4 10 -3 6 -8 10 -11 10 -2 0 -4
-4 -4 -10z"/>
</g>
</svg>
